<?xml version="1.0" encoding="UTF-8" standalone="no"?>
<svg
   xmlns:dc="http://purl.org/dc/elements/1.1/"
   xmlns:cc="http://creativecommons.org/ns#"
   xmlns:rdf="http://www.w3.org/1999/02/22-rdf-syntax-ns#"
   xmlns:svg="http://www.w3.org/2000/svg"
   xmlns="http://www.w3.org/2000/svg"
   viewBox="0 0 1875 1875"
   height="1875"
   width="1875"
   xml:space="preserve"
   version="1.1"
   id="svg2">
   <metadata id="metadata8"><rdf:RDF>
      <cc:Work rdf:about=""><dc:format>image/svg+xml</dc:format>
      <dc:type rdf:resource="http://purl.org/dc/dcmitype/StillImage" />
      </cc:Work></rdf:RDF>
   </metadata>
   <defs id="defs6" />
   <g transform="matrix(1.25,0,0,-1.25,0,1875)" id="g10">
   <g transform="scale(0.102249,0.102249)" id="g12">
   <path id="path14" style="fill:#ffffff;fill-opacity:1;fill-rule:nonzero;stroke:none" d="m 0,0 14670,0 0,14670 L 0,14670 0,0 Z" />
   <path id="path16" style="fill:#464648;fill-opacity:1;fill-rule:nonzero;stroke:none" d="m 5330.77,11833.3 149.35,0 0,-59.8 -215.64,0 0,346.2 66.29,0 0,-286.4" />
   <path id="path18" style="fill:#464648;fill-opacity:1;fill-rule:nonzero;stroke:none" d="m 5581.66,11773.5 66.2813,0 0,346.191 -66.2813,0 0,-346.191 z" />
   <path id="path20" style="fill:#464648;fill-opacity:1;fill-rule:nonzero;stroke:none" d="m 6088.18,11773.5 -62.8,0 -178.04,236.4 0,-236.4 -64.8,0 0,346.2 62.82,0 178.53,-236.9 0,236.9 64.29,0 0,-346.2" />
   <path id="path22" style="fill:#464648;fill-opacity:1;fill-rule:nonzero;stroke:none" d="m 6476.66,12061.8 -187.43,0 0,-85.5 168.14,0 0,-57.9 -168.14,0 0,-87 193.36,0 0,-57.9 -259.64,0 0,346.2 253.71,0 0,-57.9" />
   <path id="path24" style="fill:#464648;fill-opacity:1;fill-rule:nonzero;stroke:none" d="m 6773.18,11773.5 66.2773,0 0,346.191 -66.2773,0 0,-346.191 z" />
   <path id="path26" style="fill:#464648;fill-opacity:1;fill-rule:nonzero;stroke:none" d="m 7263.39,12066.3 -38.55,-48.5 c -24.75,27.7 -59.84,45 -93.97,45 -65.3,0 -116.24,-50.4 -116.24,-114.7 0,-64.8 50.94,-115.3 116.24,-115.3 33.12,0 68.23,15.4 93.97,40.6 l 39.06,-43.5 c -35.6,-36.1 -86.54,-59.4 -136.5,-59.4 -101.88,0 -180.52,76.7 -180.52,176.6 0,98.9 79.63,174.5 183,174.5 49.45,0 99.89,-21.2 133.51,-55.3" />
   <path id="path28" style="fill:#464648;fill-opacity:1;fill-rule:nonzero;stroke:none" d="m 7401.57,11946.6 c 0,-65.3 53.92,-116.7 117.72,-116.7 63.29,0 115.72,51.4 115.72,116.7 0,65.3 -52.43,115.7 -115.72,115.7 -64.3,0 -117.72,-50.4 -117.72,-115.7 z m 301.2,0 c 0,-99.4 -80.12,-176.1 -184.47,-176.1 -104.35,0 -184.47,76.7 -184.47,176.1 0,99.9 80.12,175 184.47,175 104.35,0 184.47,-75.6 184.47,-175" />
   <path id="path30" style="fill:#464648;fill-opacity:1;fill-rule:nonzero;stroke:none" d="m 8116.47,11773.5 -62.8,0 -178.05,236.4 0,-236.4 -64.79,0 0,346.2 62.81,0 178.54,-236.9 0,236.9 64.29,0 0,-346.2" />
   <path id="path32" style="fill:#464648;fill-opacity:1;fill-rule:nonzero;stroke:none" d="m 8669.2,12086 -26.69,-57.3 c -37.1,22.2 -77.17,33.6 -103.86,33.6 -31.17,0 -51.44,-11.4 -51.44,-32.6 0,-70.3 185.96,-32.2 185.46,-156.3 0,-64.8 -56.38,-102.4 -132.55,-102.4 -55.39,0 -109.29,22.3 -146.38,55.4 l 27.69,55.9 c 35.61,-31.7 82.59,-50.9 119.7,-50.9 37.08,0 59.33,13.8 59.33,38 0,72.2 -185.94,31.2 -185.94,154.3 0,60.4 51.93,98.9 129.56,98.9 46,0 92,-14.8 125.12,-36.6" />
   <path id="path34" style="fill:#464648;fill-opacity:1;fill-rule:nonzero;stroke:none" d="m 9038.85,12061.8 -187.43,0 0,-85.5 168.15,0 0,-57.9 -168.15,0 0,-87 193.37,0 0,-57.9 -259.65,0 0,346.2 253.71,0 0,-57.9" />
   <path id="path36" style="fill:#464648;fill-opacity:1;fill-rule:nonzero;stroke:none" d="m 9405.52,12060.8 -107.82,0 0,-287.3 -66.77,0 0,287.3 -107.81,0 0,58.9 282.4,0 0,-58.9" />
   <path id="path38" style="fill:#464648;fill-opacity:1;fill-rule:nonzero;stroke:none" d="m 4932.29,11907.5 -1514.54,0 c -21.61,0 -39.12,17.5 -39.12,39.1 0,21.6 17.51,39.1 39.12,39.1 l 1514.54,0 c 21.6,0 39.12,-17.5 39.12,-39.1 0,-21.6 -17.52,-39.1 -39.12,-39.1" />
   <path id="path40" style="fill:#464648;fill-opacity:1;fill-rule:nonzero;stroke:none" d="m 11252.3,11907.5 -1514.58,0 c -21.6,0 -39.12,17.5 -39.12,39.1 0,21.6 17.52,39.1 39.12,39.1 l 1514.58,0 c 21.6,0 39.1,-17.5 39.1,-39.1 0,-21.6 -17.5,-39.1 -39.1,-39.1" />
   <path id="path42" style="fill:#464648;fill-opacity:1;fill-rule:nonzero;stroke:none" d="m 5754.7,13103.5 -200.65,0 0,-534.7 -124.24,0 0,534.7 -200.61,0 0,109.6 525.5,0 0,-109.6" />
   <path id="path44" style="fill:#464648;fill-opacity:1;fill-rule:nonzero;stroke:none" d="m 6057.87,12867 145.41,0 c 92.03,0 143.55,39.6 143.55,120.6 0,79.1 -51.52,117.8 -143.55,117.8 l -145.41,0 0,-238.4 z m 279.77,-298.2 -111.35,190.5 c -7.38,-0.9 -14.73,-0.9 -23.01,-0.9 l -145.41,0 0,-189.6 -123.35,0 0,644.3 268.76,0 c 166.55,0 261.35,-80.1 261.35,-221.8 0,-101.3 -45.08,-174 -127.92,-209 l 141.75,-213.5 -140.82,0" />
   <path id="path46" style="fill:#464648;fill-opacity:1;fill-rule:nonzero;stroke:none" d="m 7248.22,12837.6 c 0,-169.4 -107.68,-274.3 -282.55,-274.3 -175.77,0 -286.19,104.9 -286.19,274.3 l 0,375.5 123.31,0 0,-375.5 c 0,-102.2 65.34,-163.9 162.88,-163.9 97.56,0 159.24,60.8 159.24,163.9 l 0,375.5 123.31,0 0,-375.5" />
   <path id="path48" style="fill:#464648;fill-opacity:1;fill-rule:nonzero;stroke:none" d="m 8024.51,13113.7 -71.76,-90.2 c -46.05,51.5 -111.35,83.7 -174.86,83.7 -121.52,0 -216.32,-93.8 -216.32,-213.5 0,-120.6 94.8,-214.4 216.32,-214.4 61.63,0 126.98,28.5 174.86,75.5 l 72.69,-81.1 c -66.24,-67.1 -161.04,-110.4 -254,-110.4 -189.59,0 -335.95,142.7 -335.95,328.6 0,184 148.2,324.8 340.56,324.8 92.02,0 185.88,-39.5 248.46,-103" />
   <path id="path50" style="fill:#464648;fill-opacity:1;fill-rule:nonzero;stroke:none" d="m 8646.12,12568.8 -200.61,276.1 -103.08,-114.1 0,-162 -123.35,0 0,644.3 123.35,0 0,-314.8 291.73,314.8 143.59,0 -245.73,-272.5 263.18,-371.8 -149.08,0" />
   <path id="path52" style="fill:#464648;fill-opacity:1;fill-rule:nonzero;stroke:none" d="m 9434.36,13150.5 -49.69,-106.8 c -69.01,41.5 -143.58,62.6 -193.26,62.6 -58,0 -95.73,-21.1 -95.73,-60.8 0,-130.6 346.06,-59.8 345.12,-290.7 0,-120.6 -104.91,-190.6 -246.66,-190.6 -103.07,0 -203.37,41.4 -272.4,103.1 l 51.52,104 c 66.29,-58.9 153.7,-94.8 222.76,-94.8 69.02,0 110.41,25.8 110.41,70.9 0,134.3 -346.02,58 -346.02,287.1 0,112.3 96.63,184.1 241.11,184.1 85.59,0 171.2,-27.6 232.84,-68.1" />
   <!-- 6 -->
   <path id="path54" style="fill:#464648;fill-opacity:1;fill-rule:nonzero;stroke:none" d="m 13052.4,7792.33 -137.2,0 c 0.1,3.03 0.2,6.04 0.2,9.09 0,118.85 -79,219.58 -187.1,252.6 l 0,263.83 219.6,-79.48 0,-270.69 c 0,-15.93 9.4,-30.36 24.1,-36.75 l 80.4,-35.16 0,-103.44 z m -401.1,-174.79 c -101.3,0 -183.9,82.49 -183.9,183.88 0,101.38 82.6,183.87 183.9,183.87 101.4,0 183.9,-82.49 183.9,-183.87 0,-101.39 -82.5,-183.88 -183.9,-183.88 z m -589.4,174.79 0,135.25 357.5,0 c -20.4,-37.51 -32.1,-80.5 -32.1,-126.16 0,-3.05 0.1,-6.06 0.2,-9.09 l -325.6,0 z m 0,871.46 c 0,24.03 19.4,43.58 43.5,43.58 l 64.4,0 0,-292.28 -107.9,0 0,248.7 z m 566.7,-248.7 -378.6,0 0,292.28 260.1,0 118.5,-292.28 z m -566.7,-80.18 107.9,0 0,-327.13 -107.9,0 0,327.13 z m 424.9,-327.13 -236.8,0 0,327.13 398.1,0 0,-269.51 c -60.9,-0.74 -116.9,-22.19 -161.3,-57.62 z m 621.7,-49.05 -80.4,35.17 0,272.6 c 0,16.89 -10.5,31.96 -26.5,37.71 l -283,102.42 -144.4,355.91 c -6.1,15.13 -20.8,25.03 -37.1,25.03 l -431.7,0 c -68.3,0 -123.7,-55.53 -123.7,-123.78 l 0,-911.56 c 0,-22.14 17.9,-40.09 40.1,-40.09 l 381,0 c 36.8,-101.79 134.3,-174.79 248.5,-174.79 114.3,0 211.8,73 248.5,174.79 l 192.7,0 c 22.1,0 40.1,17.95 40.1,40.09 l 0,169.77 c 0,15.93 -9.5,30.34 -24.1,36.73" />
   <path id="path56" style="fill:#464648;fill-opacity:1;fill-rule:nonzero;stroke:none" d="m 12651.3,7881.61 c -44.2,0 -80.2,-35.98 -80.2,-80.2 0,-44.22 36,-80.19 80.2,-80.19 44.2,0 80.2,35.97 80.2,80.19 0,44.22 -36,80.2 -80.2,80.2" />
   <path id="path58" style="fill:#464648;fill-opacity:1;fill-rule:nonzero;stroke:none" d="m 11106.9,7617.54 c -101.4,0 -183.8,82.49 -183.8,183.88 0,101.38 82.4,183.87 183.8,183.87 101.5,0 183.9,-82.49 183.9,-183.87 0,-101.39 -82.4,-183.88 -183.9,-183.88 z m 0,447.94 c -145.6,0 -264,-118.46 -264,-264.06 0,-145.61 118.4,-264.07 264,-264.07 145.7,0 264.1,118.46 264.1,264.07 0,145.6 -118.4,264.06 -264.1,264.06" />
   <path id="path60" style="fill:#464648;fill-opacity:1;fill-rule:nonzero;stroke:none" d="m 11106.9,7881.61 c -44.2,0 -80.1,-35.98 -80.1,-80.2 0,-44.22 35.9,-80.19 80.1,-80.19 44.3,0 80.2,35.97 80.2,80.19 0,44.22 -35.9,80.2 -80.2,80.2" />
   <path id="path62" style="fill:#464648;fill-opacity:1;fill-rule:nonzero;stroke:none" d="m 12438.8,8267.6 -84.9,0 c -22.1,0 -40.1,-17.96 -40.1,-40.1 0,-22.14 18,-40.09 40.1,-40.09 l 84.9,0 c 22.2,0 40.1,17.95 40.1,40.09 0,22.14 -17.9,40.1 -40.1,40.1" />
   <path id="path64" style="fill:#464648;fill-opacity:1;fill-rule:nonzero;stroke:none" d="m 11840,7835.9 c 0,-24.02 -19.6,-43.57 -43.7,-43.57 l -254.3,0 c -24.1,0 -43.7,19.55 -43.7,43.57 l 0,105.81 c 0,24.03 19.6,43.58 43.7,43.58 l 254.3,0 c 24.1,0 43.7,-19.55 43.7,-43.58 l 0,-105.81 z m -43.7,229.58 -254.3,0 c -68.3,0 -123.9,-55.52 -123.9,-123.77 l 0,-105.81 c 0,-68.24 55.6,-123.76 123.9,-123.76 l 254.3,0 c 68.3,0 123.9,55.52 123.9,123.76 l 0,105.81 c 0,68.25 -55.6,123.77 -123.9,123.77" />
   <path id="path66" style="fill:#464648;fill-opacity:1;fill-rule:nonzero;stroke:none" d="m 10866.9,8304.62 259,0 0,-96.71 -259,0 0,96.71 z m -339.2,0 259,0 0,-96.71 -259,0 0,96.71 z m 1276.7,659.81 0,-579.61 -1276.7,0 0,579.61 1276.7,0 z m 0,-756.52 -259.1,0 0,96.71 259.1,0 0,-96.71 z m -598.3,96.71 259,0 0,-96.71 -259,0 0,96.71 z m 638.4,-176.9 c 22.1,0 40,17.94 40,40.08 l 0,836.72 c 0,22.15 -17.9,40.1 -40,40.1 l -1356.9,0 c -22.2,0 -40.1,-17.95 -40.1,-40.1 l 0,-836.72 c 0,-22.14 17.9,-40.08 40.1,-40.08 l 1356.9,0" />
   <!-- 3 -->
   <path id="path68" style="fill:#464648;fill-opacity:1;fill-rule:nonzero;stroke:none" d="m 10738.1,8065.48 c -22.1,0 -40.1,-17.95 -40.1,-40.1 l 0,-212.85 -42.4,0 c -22.1,0 -40.1,-17.95 -40.1,-40.1 0,-22.14 18,-40.1 40.1,-40.1 l 82.5,0 c 22.2,0 40.1,17.96 40.1,40.1 l 0,252.95 c 0,22.15 -17.9,40.1 -40.1,40.1" />
   <path id="path70" style="fill:#464648;fill-opacity:1;fill-rule:nonzero;stroke:none" d="m 12187.5,9702.11 -178.1,0 0,36.75 c 0,22.14 -17.9,40.09 -40.1,40.09 -22.2,0 -40.1,-17.95 -40.1,-40.09 l 0,-36.75 -280.9,0 0,36.75 c 0,22.14 -18,40.09 -40.1,40.09 -22.2,0 -40.1,-17.95 -40.1,-40.09 l 0,-36.75 -178.2,0 c -22.2,0 -40.1,-17.94 -40.1,-40.09 0,-22.15 17.9,-40.1 40.1,-40.1 l 797.6,0 c 22.2,0 40.1,17.95 40.1,40.1 0,22.15 -17.9,40.09 -40.1,40.09" />
   <path id="path72" style="fill:#464648;fill-opacity:1;fill-rule:nonzero;stroke:none" d="m 13052.4,9922.13 -340.2,0 c -17.6,14.06 -37,25.9 -57.9,35.14 l 0,292.03 398.1,0 0,-327.17 z m 0,-145.33 -51.6,-70.12 -189.2,0 c 0.1,3.02 0.2,6.04 0.2,9.1 0,45.66 -11.6,88.64 -32.2,126.15 l 272.8,0 0,-65.13 z m -504.7,-244.9 c -101.4,0 -183.8,82.49 -183.8,183.88 0,101.38 82.4,183.87 183.8,183.87 101.5,0 183.9,-82.49 183.9,-183.87 0,-101.39 -82.4,-183.88 -183.9,-183.88 z m -81.6,717.4 108,0 0,-270.78 c -8.7,0.87 -17.5,1.32 -26.4,1.32 -28.4,0 -55.9,-4.59 -81.6,-12.97 l 0,282.43 z m 0,328.9 c 0,24 19.5,43.5 43.6,43.5 l 64.4,0 0,-292.3 -108,0 0,248.8 z m 566.8,-248.8 -378.6,0 0,292.3 260.1,0 118.5,-292.3 z m 98.9,-32.8 c -0.1,0.6 -0.2,1.1 -0.3,1.6 -0.5,2.1 -2.1,6.8 -2.1,6.8 l -150.8,371.9 c -6.2,15.1 -20.9,25 -37.2,25 l -431.7,0 c -68.3,0 -123.8,-55.5 -123.8,-123.7 l 0,-653.97 c -62.1,-48.37 -102.2,-123.79 -102.2,-208.45 0,-145.61 118.4,-264.07 264,-264.07 114.4,0 211.9,72.99 248.6,174.79 l 224.9,0 c 12.7,0 24.7,6.07 32.3,16.36 l 71.3,97.06 c 5,6.89 7.8,15.2 7.8,23.74 l 0,525.74 c 0,0 -0.3,4.9 -0.8,7.2" />
   <path id="path74" style="fill:#464648;fill-opacity:1;fill-rule:nonzero;stroke:none" d="m 12547.7,9795.96 c -44.2,0 -80.2,-35.97 -80.2,-80.18 0,-44.23 36,-80.2 80.2,-80.2 44.2,0 80.2,35.97 80.2,80.2 0,44.21 -36,80.18 -80.2,80.18" />
   <path id="path76" style="fill:#464648;fill-opacity:1;fill-rule:nonzero;stroke:none" d="m 12208.6,10007.7 -85.6,-85.57 -928.4,0 c -45.2,36.07 -102.3,57.71 -164.5,57.71 -86.7,0 -163.6,-41.92 -211.9,-106.54 l -378.4,-123.18 0,21.36 470.9,259.82 1297.9,0 0,-23.6 z m -1178.5,-475.8 c -101.4,0 -183.9,82.49 -183.9,183.88 0,101.38 82.5,183.87 183.9,183.87 101.4,0 183.8,-82.49 183.8,-183.87 0,-101.39 -82.4,-183.88 -183.8,-183.88 z m 1142.2,1089.8 36.3,0 0,-510.2 -161,0 124.7,510.2 z m 116.5,40.1 c 0,22.2 -17.9,40.1 -40.1,40.1 l -107.9,0 c -18.5,0 -34.5,-12.6 -38.9,-30.6 l -136.9,-559.8 -1064.6,0 c -6.8,0 -13.5,-1.7 -19.4,-5 l -500.7,-276.24 c -12.7,-7.05 -20.6,-20.51 -20.6,-35.11 l 0,-100.24 c 0,-12.84 6,-24.89 16.5,-32.45 6.9,-5.03 15.1,-7.64 23.5,-7.64 4.2,0 8.4,0.64 12.4,1.96 l 360.5,117.31 c -4.2,-18.77 -6.6,-38.27 -6.6,-58.31 0,-145.61 118.5,-264.07 264.1,-264.07 145.6,0 264,118.46 264,264.07 0,45.66 -11.6,88.64 -32.1,126.15 l 877.6,0 c 10.7,0 20.9,4.22 28.4,11.74 l 109,109.08 c 7.6,7.52 11.8,17.71 11.8,28.35 l 0,670.7" />
   <path id="path78" style="fill:#464648;fill-opacity:1;fill-rule:nonzero;stroke:none" d="m 11030.1,9795.96 c -44.2,0 -80.2,-35.97 -80.2,-80.18 0,-44.23 36,-80.2 80.2,-80.2 44.2,0 80.2,35.97 80.2,80.2 0,44.21 -36,80.18 -80.2,80.18" />
   <path id="path80" style="fill:#464648;fill-opacity:1;fill-rule:nonzero;stroke:none" d="m 12758.2,10101.8 84.9,0 c 22.1,0 40.1,17.9 40.1,40.1 0,22.1 -18,40.1 -40.1,40.1 l -84.9,0 c -22.2,0 -40.1,-18 -40.1,-40.1 0,-22.2 17.9,-40.1 40.1,-40.1" />
   
   <!-- musor -->
   <path id="path82" style="fill:#464648;fill-opacity:1;fill-rule:nonzero;stroke:none" d="m 2557.35,8259.91 c 7.31,-5.63 15.92,-8.35 24.47,-8.35 12.01,0 23.88,5.36 31.78,15.6 l 197.49,255.86 c 13.52,17.52 10.27,42.71 -7.25,56.24 -17.54,13.54 -42.72,10.28 -56.25,-7.24 l -197.47,-255.86 c -13.53,-17.53 -10.29,-42.71 7.23,-56.25" />
   <path id="path84" style="fill:#464648;fill-opacity:1;fill-rule:nonzero;stroke:none" d="m 2795.31,8259.91 c 7.3,-5.63 15.91,-8.35 24.47,-8.35 12,0 23.87,5.36 31.77,15.6 l 197.49,255.86 c 13.53,17.52 10.28,42.71 -7.24,56.24 -17.53,13.54 -42.71,10.28 -56.25,-7.24 l -197.49,-255.86 c -13.52,-17.53 -10.27,-42.71 7.25,-56.25" />
   <path id="path86" style="fill:#464648;fill-opacity:1;fill-rule:nonzero;stroke:none" d="m 3033.27,8259.91 c 7.29,-5.63 15.91,-8.35 24.47,-8.35 12.01,0 23.87,5.36 31.77,15.6 l 197.48,255.86 c 13.53,17.52 10.29,42.71 -7.25,56.24 -17.53,13.54 -42.72,10.28 -56.23,-7.24 l -197.48,-255.86 c -13.53,-17.53 -10.29,-42.71 7.24,-56.25" />
   <path id="path88" style="fill:#464648;fill-opacity:1;fill-rule:nonzero;stroke:none" d="m 3481.45,7787.75 -171.78,0 0,36.74 c 0,22.15 -17.96,40.1 -40.1,40.1 -22.14,0 -40.1,-17.95 -40.1,-40.1 l 0,-36.74 -218.56,0 0,36.74 c 0,22.15 -17.95,40.1 -40.1,40.1 -22.14,0 -40.1,-17.95 -40.1,-40.1 l 0,-36.74 -171.77,0 c -22.14,0 -40.09,-17.95 -40.09,-40.09 0,-22.14 17.95,-40.1 40.09,-40.1 l 722.51,0 c 22.15,0 40.09,17.96 40.09,40.1 0,22.14 -17.94,40.09 -40.09,40.09" />
   <path id="path90" style="fill:#464648;fill-opacity:1;fill-rule:nonzero;stroke:none" d="m 4352.67,8007.77 -340.14,0 c -17.6,14.05 -37.03,25.91 -57.87,35.14 l 0,292 398.01,0 0,-327.14 z m 0,-145.33 -51.49,-70.12 -189.32,0 c 0.11,3.02 0.24,6.05 0.24,9.1 0,45.66 -11.66,88.64 -32.15,126.15 l 272.72,0 0,-65.13 z m -504.63,-244.9 c -101.39,0 -183.88,82.49 -183.88,183.88 0,101.38 82.49,183.87 183.88,183.87 101.38,0 183.86,-82.49 183.86,-183.87 0,-101.39 -82.48,-183.88 -183.86,-183.88 z m -81.63,717.37 108.05,0 0,-270.76 c -8.69,0.88 -17.5,1.33 -26.42,1.33 -28.48,0 -55.9,-4.59 -81.63,-12.97 l 0,282.4 z m 0,328.88 c 0,24.03 19.55,43.58 43.57,43.58 l 64.48,0 0,-292.28 -108.05,0 0,248.7 z m 566.82,-248.7 -378.57,0 0,292.28 259.97,0 118.6,-292.28 z m 98.91,-32.91 c -0.12,0.59 -0.23,1.17 -0.36,1.75 -0.47,2.08 -2.1,6.7 -2.12,6.78 l -150.86,371.83 c -6.14,15.13 -20.83,25.03 -37.16,25.03 l -431.66,0 c -68.24,0 -123.76,-55.53 -123.76,-123.78 l 0,-653.92 c -62.15,-48.35 -102.25,-123.78 -102.25,-208.45 0,-145.61 118.46,-264.07 264.07,-264.07 114.27,0 211.8,72.99 248.48,174.78 l 224.96,0 c 12.77,0 24.76,6.08 32.32,16.36 l 71.28,97.08 c 5.06,6.88 7.78,15.19 7.78,23.73 l 0,525.7 c 0,0.11 -0.31,4.89 -0.72,7.18" />
   <path id="path92" style="fill:#464648;fill-opacity:1;fill-rule:nonzero;stroke:none" d="m 3848.04,7881.61 c -44.23,0 -80.2,-35.98 -80.2,-80.2 0,-44.22 35.97,-80.19 80.2,-80.19 44.21,0 80.19,35.97 80.19,80.19 0,44.22 -35.98,80.2 -80.19,80.2" />
   <path id="path94" style="fill:#464648;fill-opacity:1;fill-rule:nonzero;stroke:none" d="m 4058.48,8187.41 84.91,0 c 22.16,0 40.1,17.95 40.1,40.09 0,22.14 -17.94,40.1 -40.1,40.1 l -84.91,0 c -22.15,0 -40.09,-17.96 -40.09,-40.1 0,-22.14 17.94,-40.09 40.09,-40.09" />
   <path id="path96" style="fill:#464648;fill-opacity:1;fill-rule:nonzero;stroke:none" d="m 3508.91,8091.93 -85.23,-85.22 -865.11,0 c -45.36,36.72 -103.06,58.77 -165.82,58.77 -130.5,0 -239.11,-95.15 -260.28,-219.69 l -186.77,0 -29.4,75.93 c -3.47,8.97 -10.06,16.39 -18.55,20.91 l -132.89,70.74 0,156.48 338.92,0 c 12.42,0 24.14,5.76 31.74,15.6 l 394.97,511.71 c 5.4,7.02 8.35,15.63 8.35,24.5 l 0,108.59 970.07,0 0,-738.32 z M 2392.75,7617.54 c -101.39,0 -183.89,82.49 -183.89,183.88 0,101.38 82.5,183.87 183.89,183.87 101.38,0 183.86,-82.49 183.86,-183.87 0,-101.39 -82.48,-183.88 -183.86,-183.88 z m -92.15,1161.24 c 5.42,7.02 8.35,15.63 8.35,24.5 l 0,136.47 76.47,0 73.22,-84.38 0,-120.04 -374.57,-485.28 -191.57,0 408.1,528.73 z m 1288.49,91.56 c 0,22.14 -17.94,40.1 -40.09,40.1 l -1031.97,0 -83.03,95.69 c -7.62,8.77 -18.67,13.82 -30.29,13.82 l -134.85,0 c -22.15,0 -40.09,-17.96 -40.09,-40.1 l 0,-162.9 -437.57,-566.9 -66.44,0 c -22.14,0 -40.09,-17.95 -40.09,-40.1 l 0,-220.66 c 0,-14.81 8.17,-28.43 21.26,-35.39 l 140.97,-75.04 33.94,-87.65 c 5.98,-15.44 20.83,-25.62 37.39,-25.62 l 212.94,0 c 17.54,-128.71 128.12,-228.24 261.58,-228.24 145.59,0 264.05,118.46 264.05,264.07 0,45.23 -11.45,87.84 -31.57,125.1 l 815.06,0 c 10.63,0 20.83,4.22 28.35,11.74 l 108.71,108.7 c 7.52,7.52 11.74,17.73 11.74,28.36 l 0,795.02" />
   <path id="path98" style="fill:#464648;fill-opacity:1;fill-rule:nonzero;stroke:none" d="m 2392.75,7881.61 c -44.23,0 -80.2,-35.98 -80.2,-80.2 0,-44.22 35.97,-80.19 80.2,-80.19 44.2,0 80.18,35.97 80.18,80.19 0,44.22 -35.98,80.2 -80.18,80.2" />
   <!-- maz -->
   <path id="path100" style="fill:#464648;fill-opacity:1;fill-rule:nonzero;stroke:none" d="m 3204.48,5703.61 c -139.26,0 -252.54,113.29 -252.54,252.55 0,139.25 113.28,252.54 252.54,252.54 139.25,0 252.54,-113.29 252.54,-252.54 0,-139.26 -113.29,-252.55 -252.54,-252.55 z m 0,585.28 c -183.48,0 -332.74,-149.27 -332.74,-332.73 0,-183.48 149.26,-332.75 332.74,-332.75 183.47,0 332.74,149.27 332.74,332.75 0,183.46 -149.27,332.73 -332.74,332.73" />
   <path id="path102" style="fill:#464648;fill-opacity:1;fill-rule:nonzero;stroke:none" d="m 3204.48,5872.79 c -45.98,0 -83.38,37.39 -83.38,83.37 0,45.97 37.4,83.36 83.38,83.36 45.97,0 83.37,-37.39 83.37,-83.36 0,-45.98 -37.4,-83.37 -83.37,-83.37 z m 0,246.93 c -90.19,0 -163.57,-73.38 -163.57,-163.56 0,-90.2 73.38,-163.57 163.57,-163.57 90.19,0 163.57,73.37 163.57,163.57 0,90.18 -73.38,163.56 -163.57,163.56" />
   <path id="path104" style="fill:#464648;fill-opacity:1;fill-rule:nonzero;stroke:none" d="m 2108.89,5703.61 c -139.26,0 -252.54,113.29 -252.54,252.55 0,139.25 113.28,252.54 252.54,252.54 139.26,0 252.55,-113.29 252.55,-252.54 0,-139.26 -113.29,-252.55 -252.55,-252.55 z m 0,585.28 c -183.47,0 -332.73,-149.27 -332.73,-332.73 0,-183.48 149.26,-332.75 332.73,-332.75 183.47,0 332.75,149.27 332.75,332.75 0,183.46 -149.28,332.73 -332.75,332.73" />
   <path id="path106" style="fill:#464648;fill-opacity:1;fill-rule:nonzero;stroke:none" d="m 2108.89,5872.79 c -45.98,0 -83.37,37.39 -83.37,83.37 0,45.97 37.39,83.36 83.37,83.36 45.98,0 83.38,-37.39 83.38,-83.36 0,-45.98 -37.4,-83.37 -83.38,-83.37 z m 0,246.93 c -90.19,0 -163.57,-73.38 -163.57,-163.56 0,-90.2 73.38,-163.57 163.57,-163.57 90.19,0 163.57,73.37 163.57,163.57 0,90.18 -73.38,163.56 -163.57,163.56" />
   <path id="path108" style="fill:#464648;fill-opacity:1;fill-rule:nonzero;stroke:none" d="m 2839.48,6318.28 -278.12,0 -850.07,369.65 0,126.67 988.13,0 c 8.62,0 17.03,2.78 23.95,7.95 l 263.77,196.48 365.79,0 0,-77.23 -285.6,0 c -17.45,0 -32.91,-11.29 -38.21,-27.92 l -189.64,-595.6 z m 67.52,-52.26 189.64,595.59 296.38,0 c 22.16,0 40.1,17.96 40.1,40.1 l 0,157.42 c 0,22.15 -17.94,40.09 -40.1,40.09 l -419.18,0 c -8.63,0 -17.03,-2.78 -23.96,-7.94 l -263.75,-196.49 -1014.93,0 c -22.15,0 -40.1,-17.95 -40.1,-40.09 l 0,-193.06 c 0,-15.96 9.47,-30.41 24.11,-36.78 l 881.82,-383.45 c 5.05,-2.19 10.49,-3.32 15.99,-3.32 l 315.77,0 c 17.46,0 32.91,11.29 38.21,27.93" />
   <path id="path110" style="fill:#464648;fill-opacity:1;fill-rule:nonzero;stroke:none" d="m 3755.51,5830.25 -76.08,0 0,287.58 c 0,10.64 -4.22,20.83 -11.73,28.35 l -273.96,273.95 c -7.52,7.52 -17.72,11.75 -28.35,11.75 l -254.48,0 24.23,76.07 620.37,0 0,-677.7 z m -553.32,888.28 270.12,0 0,-130.39 -311.64,0 41.52,130.39 z m 593.42,-130.39 -243.1,0 0,170.49 c 0,22.14 -17.95,40.09 -40.1,40.09 l -339.53,0 c -17.46,0 -32.91,-11.29 -38.2,-27.93 l -116.82,-366.84 c -3.89,-12.2 -1.72,-25.5 5.83,-35.83 7.55,-10.33 19.58,-16.44 32.37,-16.44 l 292.72,0 250.47,-250.47 0,-311.06 c 0,-22.15 17.94,-40.1 40.09,-40.1 l 156.27,0 c 22.14,0 40.1,17.95 40.1,40.1 l 0,757.89 c 0,22.16 -17.96,40.1 -40.1,40.1" />
   <path id="path112" style="fill:#464648;fill-opacity:1;fill-rule:nonzero;stroke:none" d="m 2729.55,6031.22 -146.81,0 0,64.66 146.81,0 0,-64.66 z m 40.1,144.86 -227.01,0 c -22.15,0 -40.09,-17.95 -40.09,-40.1 l 0,-144.86 c 0,-22.15 17.94,-40.1 40.09,-40.1 l 227.01,0 c 22.14,0 40.1,17.95 40.1,40.1 l 0,144.86 c 0,22.15 -17.96,40.1 -40.1,40.1" />
   <path id="path114" style="fill:#464648;fill-opacity:1;fill-rule:nonzero;stroke:none" d="m 2771.02,6708.76 -568.07,0 c -22.15,0 -40.1,-17.96 -40.1,-40.1 0,-22.14 17.95,-40.1 40.1,-40.1 l 568.07,0 c 22.15,0 40.09,17.96 40.09,40.1 0,22.14 -17.94,40.1 -40.09,40.1" />
   <path id="path116" style="fill:#464648;fill-opacity:1;fill-rule:nonzero;stroke:none" d="m 2721.23,6554.16 -222.7,0 c -22.15,0 -40.1,-17.96 -40.1,-40.1 0,-22.15 17.95,-40.1 40.1,-40.1 l 222.7,0 c 22.15,0 40.09,17.95 40.09,40.1 0,22.14 -17.94,40.1 -40.09,40.1" />
 <!-- MNOGOOSN -->
   <path id="path118" style="fill:#464648;fill-opacity:1;fill-rule:nonzero;stroke:none" d="m 11550.3,5921.97 c 0,-24.02 -19.6,-43.58 -43.6,-43.58 l -254.4,0 c -24.1,0 -43.6,19.56 -43.6,43.58 l 0,105.81 c 0,24.02 19.5,43.57 43.6,43.57 l 254.4,0 c 24,0 43.6,-19.55 43.6,-43.57 l 0,-105.81 z m -43.6,229.57 -254.4,0 c -68.3,0 -123.8,-55.51 -123.8,-123.76 l 0,-105.81 c 0,-68.24 55.5,-123.78 123.8,-123.78 l 254.4,0 c 68.2,0 123.8,55.54 123.8,123.78 l 0,105.81 c 0,68.25 -55.6,123.76 -123.8,123.76" />
   <path id="path120" style="fill:#464648;fill-opacity:1;fill-rule:nonzero;stroke:none" d="m 9844.35,6148.55 c -22.2,0 -40.1,-17.96 -40.1,-40.1 l 0,-212.85 -42.45,0 c -22.14,0 -40.09,-17.97 -40.09,-40.1 0,-22.15 17.95,-40.1 40.09,-40.1 l 82.55,0 c 22.11,0 40.1,17.95 40.1,40.1 l 0,252.95 c 0,22.14 -17.99,40.1 -40.1,40.1" />
   <path id="path122" style="fill:#464648;fill-opacity:1;fill-rule:nonzero;stroke:none" d="m 12758.2,6273.47 84.9,0 c 22.1,0 40.1,17.95 40.1,40.1 0,22.13 -18,40.09 -40.1,40.09 l -84.9,0 c -22.2,0 -40.1,-17.96 -40.1,-40.09 0,-22.15 17.9,-40.1 40.1,-40.1" />
   <path id="path124" style="fill:#464648;fill-opacity:1;fill-rule:nonzero;stroke:none" d="m 13052.4,6093.82 -340.2,0 c -17.6,14.06 -37,25.91 -57.9,35.15 l 0,291.99 398.1,0 0,-327.14 z m 0,-145.32 -51.6,-70.11 -189.2,0 c 0.1,3.03 0.2,6.04 0.2,9.08 0,45.67 -11.6,88.65 -32.2,126.16 l 272.8,0 0,-65.13 z m -504.7,-244.89 c -101.4,0 -183.8,82.47 -183.8,183.86 0,101.39 82.4,183.88 183.8,183.88 101.5,0 183.9,-82.49 183.9,-183.88 0,-101.39 -82.4,-183.86 -183.9,-183.86 z m -81.6,717.35 108,0 0,-270.74 c -8.7,0.85 -17.5,1.32 -26.4,1.32 -28.4,0 -55.9,-4.59 -81.6,-12.98 l 0,282.4 z m 0,328.9 c 0,24.02 19.5,43.57 43.6,43.57 l 64.4,0 0,-292.27 -108,0 0,248.7 z m 566.8,-248.7 -378.6,0 0,292.27 260.1,0 118.5,-292.27 z m 98.9,-32.85 c -0.1,0.55 -0.2,1.08 -0.3,1.62 -0.5,2.11 -2.1,6.75 -2.1,6.79 l -150.8,371.87 c -6.2,15.14 -20.9,25.03 -37.2,25.03 l -431.7,0 c -68.3,0 -123.8,-55.51 -123.8,-123.76 l 0,-653.94 c -62.1,-48.36 -102.2,-123.78 -102.2,-208.45 0,-145.59 118.4,-264.06 264,-264.06 114.4,0 211.9,72.99 248.6,174.78 l 224.9,0 c 12.7,0 24.7,6.08 32.3,16.38 l 71.3,97.08 c 5,6.87 7.8,15.19 7.8,23.72 l 0,525.69 c 0,0.1 -0.3,4.93 -0.8,7.25" />
   <path id="path126" style="fill:#464648;fill-opacity:1;fill-rule:nonzero;stroke:none" d="m 12547.7,5967.66 c -44.2,0 -80.2,-35.96 -80.2,-80.19 0,-44.22 36,-80.19 80.2,-80.19 44.2,0 80.2,35.97 80.2,80.19 0,44.23 -36,80.19 -80.2,80.19" />
   <path id="path128" style="fill:#464648;fill-opacity:1;fill-rule:nonzero;stroke:none" d="m 11956.6,5703.61 c -101.3,0 -183.8,82.47 -183.8,183.86 0,101.39 82.5,183.88 183.8,183.88 101.5,0 183.9,-82.49 183.9,-183.88 0,-101.39 -82.4,-183.86 -183.9,-183.86 z m 0,447.93 c -145.6,0 -264,-118.45 -264,-264.07 0,-145.59 118.4,-264.06 264,-264.06 145.7,0 264.1,118.47 264.1,264.06 0,145.62 -118.4,264.07 -264.1,264.07" />
   <path id="path130" style="fill:#464648;fill-opacity:1;fill-rule:nonzero;stroke:none" d="m 11956.6,5967.66 c -44.2,0 -80.2,-35.96 -80.2,-80.19 0,-44.22 36,-80.19 80.2,-80.19 44.2,0 80.2,35.97 80.2,80.19 0,44.23 -36,80.19 -80.2,80.19" />
   <path id="path132" style="fill:#464648;fill-opacity:1;fill-rule:nonzero;stroke:none" d="m 10802.4,5703.61 c -101.4,0 -183.9,82.47 -183.9,183.86 0,101.39 82.5,183.88 183.9,183.88 101.3,0 183.9,-82.49 183.9,-183.88 0,-101.39 -82.6,-183.86 -183.9,-183.86 z m 0,447.93 c -145.6,0 -264.1,-118.45 -264.1,-264.07 0,-145.59 118.5,-264.06 264.1,-264.06 145.5,0 264.1,118.47 264.1,264.06 0,145.62 -118.6,264.07 -264.1,264.07" />
   <path id="path134" style="fill:#464648;fill-opacity:1;fill-rule:nonzero;stroke:none" d="m 10802.4,5967.66 c -44.3,0 -80.2,-35.96 -80.2,-80.19 0,-44.22 35.9,-80.19 80.2,-80.19 44.2,0 80.2,35.97 80.2,80.19 0,44.23 -36,80.19 -80.2,80.19" />
   <path id="path136" style="fill:#464648;fill-opacity:1;fill-rule:nonzero;stroke:none" d="m 10211.3,5703.61 c -101.4,0 -183.9,82.47 -183.9,183.86 0,101.39 82.5,183.88 183.9,183.88 101.4,0 183.9,-82.49 183.9,-183.88 0,-101.39 -82.5,-183.86 -183.9,-183.86 z m 0,447.93 c -145.6,0 -264.06,-118.45 -264.06,-264.07 0,-145.59 118.46,-264.06 264.06,-264.06 145.6,0 264.1,118.47 264.1,264.06 0,145.62 -118.5,264.07 -264.1,264.07" />
   <path id="path138" style="fill:#464648;fill-opacity:1;fill-rule:nonzero;stroke:none" d="m 10211.3,5967.66 c -44.2,0 -80.2,-35.96 -80.2,-80.19 0,-44.22 36,-80.19 80.2,-80.19 44.2,0 80.2,35.97 80.2,80.19 0,44.23 -36,80.19 -80.2,80.19" />
   <path id="path140" style="fill:#464648;fill-opacity:1;fill-rule:nonzero;stroke:none" d="m 12189,6294.14 c -30,0 -54.4,24.41 -54.4,54.4 0,29.99 24.4,54.41 54.4,54.41 30,0 54.4,-24.42 54.4,-54.41 0,-29.99 -24.4,-54.4 -54.4,-54.4 z m 0,188.99 c -74.2,0 -134.6,-60.38 -134.6,-134.59 0,-74.22 60.4,-134.59 134.6,-134.59 74.2,0 134.6,60.37 134.6,134.59 0,74.21 -60.4,134.59 -134.6,134.59" />
   <path id="path142" style="fill:#464648;fill-opacity:1;fill-rule:nonzero;stroke:none" d="m 10292.6,6698.64 c -20.6,8.47 -43.9,-1.24 -52.5,-21.68 l -96.3,-232.28 c -8.4,-20.45 1.3,-43.91 21.7,-52.39 5,-2.09 10.3,-3.08 15.4,-3.08 15.7,0 30.6,9.33 37,24.76 l 96.3,232.27 c 8.5,20.46 -1.2,43.92 -21.6,52.4" />
   <path id="path144" style="fill:#464648;fill-opacity:1;fill-rule:nonzero;stroke:none" d="m 10931.9,6698.64 c -20.5,8.47 -43.9,-1.23 -52.4,-21.68 l -96.4,-232.28 c -8.5,-20.45 1.3,-43.91 21.7,-52.39 5,-2.09 10.2,-3.08 15.4,-3.08 15.6,0 30.6,9.32 37.1,24.76 l 96.2,232.27 c 8.5,20.46 -1.2,43.92 -21.6,52.4" />
   <path id="path146" style="fill:#464648;fill-opacity:1;fill-rule:nonzero;stroke:none" d="m 11571.1,6698.64 c -20.4,8.47 -43.9,-1.24 -52.3,-21.68 l -96.3,-232.28 c -8.6,-20.45 1.2,-43.91 21.7,-52.39 5,-2.09 10.1,-3.08 15.3,-3.08 15.7,0 30.6,9.33 37.1,24.76 l 96.2,232.27 c 8.5,20.46 -1.2,43.92 -21.7,52.4" />
   <path id="path148" style="fill:#464648;fill-opacity:1;fill-rule:nonzero;stroke:none" d="m 9757.49,6294.14 0,225.66 123.83,298.35 c 2.06,4.88 3.13,10.1 3.13,15.37 l 0,43.02 129.05,0 49.8,-66.93 c 7.6,-10.17 19.5,-16.18 32.2,-16.18 l 1608.9,0 c 8,0 16,2.43 22.6,6.96 l 233.6,159.28 338.8,0 -32.1,-77.4 -131.3,0 c -16.2,0 -30.8,-9.77 -37.1,-24.74 l -233.5,-563.39 -2107.91,0 z m 2171.81,-55.46 233.5,563.4 131.2,0 c 16.3,0 31,9.76 37.1,24.74 l 65.3,157.59 c 5.2,12.37 3.8,26.49 -3.7,37.63 -7.4,11.13 -19.9,17.82 -33.3,17.82 l -411.2,0 c -8,0 -15.8,-2.43 -22.5,-6.95 l -233.7,-159.29 -1576.4,0 -49.7,66.93 c -7.6,10.18 -19.5,16.19 -32.2,16.19 l -189.35,0 c -22.2,0 -40.1,-17.95 -40.1,-40.1 l 0,-75.12 -123.89,-298.36 c -2.02,-4.87 -3.07,-10.1 -3.07,-15.37 l 0,-273.74 c 0,-22.16 17.96,-40.1 40.1,-40.1 l 2174.81,0 c 16.2,0 30.8,9.76 37.1,24.73" />
   
   <path id="path150" style="fill:#464648;fill-opacity:1;fill-rule:nonzero;stroke:none" d="m 7753.86,5703.61 c -101.39,0 -183.87,82.47 -183.87,183.86 0,101.39 82.48,183.88 183.87,183.88 101.39,0 183.87,-82.49 183.87,-183.88 0,-101.39 -82.48,-183.86 -183.87,-183.86 z m 0,447.93 c -145.61,0 -264.06,-118.45 -264.06,-264.07 0,-145.59 118.45,-264.06 264.06,-264.06 145.6,0 264.07,118.47 264.07,264.06 0,145.62 -118.47,264.07 -264.07,264.07" />
   <path id="path152" style="fill:#464648;fill-opacity:1;fill-rule:nonzero;stroke:none" d="m 7753.86,5967.66 c -44.23,0 -80.2,-35.96 -80.2,-80.19 0,-44.22 35.97,-80.19 80.2,-80.19 44.21,0 80.18,35.97 80.18,80.19 0,44.23 -35.97,80.19 -80.18,80.19" />
   <path id="path154" style="fill:#464648;fill-opacity:1;fill-rule:nonzero;stroke:none" d="m 7162.79,5703.61 c -101.38,0 -183.88,82.47 -183.88,183.86 0,101.39 82.5,183.88 183.88,183.88 101.38,0 183.87,-82.49 183.87,-183.88 0,-101.39 -82.49,-183.86 -183.87,-183.86 z m 0,447.93 c -145.61,0 -264.08,-118.45 -264.08,-264.07 0,-145.59 118.47,-264.06 264.08,-264.06 145.61,0 264.07,118.47 264.07,264.06 0,145.62 -118.46,264.07 -264.07,264.07" />
   <path id="path156" style="fill:#464648;fill-opacity:1;fill-rule:nonzero;stroke:none" d="m 7162.79,5967.66 c -44.22,0 -80.19,-35.96 -80.19,-80.19 0,-44.22 35.97,-80.19 80.19,-80.19 44.22,0 80.19,35.97 80.19,80.19 0,44.23 -35.97,80.19 -80.19,80.19" />
   <path id="path158" style="fill:#464648;fill-opacity:1;fill-rule:nonzero;stroke:none" d="m 6110.78,5703.61 c -101.38,0 -183.85,82.47 -183.85,183.86 0,101.39 82.47,183.88 183.85,183.88 101.39,0 183.88,-82.49 183.88,-183.88 0,-101.39 -82.49,-183.86 -183.88,-183.86 z m 0,447.93 c -145.6,0 -264.05,-118.45 -264.05,-264.07 0,-145.59 118.45,-264.06 264.05,-264.06 145.61,0 264.08,118.47 264.08,264.06 0,145.62 -118.47,264.07 -264.08,264.07" />
   <path id="path160" style="fill:#464648;fill-opacity:1;fill-rule:nonzero;stroke:none" d="m 6110.78,5967.66 c -44.22,0 -80.19,-35.96 -80.19,-80.19 0,-44.22 35.97,-80.19 80.19,-80.19 44.21,0 80.2,35.97 80.2,80.19 0,44.23 -35.99,80.19 -80.2,80.19" />
   <path id="path162" style="fill:#464648;fill-opacity:1;fill-rule:nonzero;stroke:none" d="m 5519.71,5703.61 c -101.39,0 -183.88,82.47 -183.88,183.86 0,101.39 82.49,183.88 183.88,183.88 101.4,0 183.88,-82.49 183.88,-183.88 0,-101.39 -82.48,-183.86 -183.88,-183.86 z m 0,447.93 c -145.61,0 -264.07,-118.45 -264.07,-264.07 0,-145.59 118.46,-264.06 264.07,-264.06 145.61,0 264.08,118.47 264.08,264.06 0,145.62 -118.47,264.07 -264.08,264.07" />
   <path id="path164" style="fill:#464648;fill-opacity:1;fill-rule:nonzero;stroke:none" d="m 5519.71,5967.66 c -44.22,0 -80.19,-35.96 -80.19,-80.19 0,-44.22 35.97,-80.19 80.19,-80.19 44.22,0 80.19,35.97 80.19,80.19 0,44.23 -35.97,80.19 -80.19,80.19" />
   <path id="path166" style="fill:#464648;fill-opacity:1;fill-rule:nonzero;stroke:none" d="m 5376.57,6903.32 c -22.15,0 -40.09,-17.96 -40.09,-40.1 l 0,-91.13 c 0,-22.14 17.94,-40.09 40.09,-40.09 22.14,0 40.09,17.95 40.09,40.09 l 0,91.13 c 0,22.14 -17.95,40.1 -40.09,40.1" />
   
   <path id="path168" style="fill:#464648;fill-opacity:1;fill-rule:nonzero;stroke:none" d="m 5516.22,6903.32 c -22.15,0 -40.09,-17.96 -40.09,-40.1 l 0,-91.13 c 0,-22.14 17.94,-40.09 40.09,-40.09 22.14,0 40.09,17.95 40.09,40.09 l 0,91.13 c 0,22.14 -17.95,40.1 -40.09,40.1" />
   <path id="path170" style="fill:#464648;fill-opacity:1;fill-rule:nonzero;stroke:none" d="m 5655.87,6903.32 c -22.15,0 -40.1,-17.96 -40.1,-40.1 l 0,-91.13 c 0,-22.14 17.95,-40.09 40.1,-40.09 22.14,0 40.1,17.95 40.1,40.09 l 0,91.13 c 0,22.14 -17.96,40.1 -40.1,40.1" />
   <path id="path172" style="fill:#464648;fill-opacity:1;fill-rule:nonzero;stroke:none" d="m 8685.77,6658.79 -38.57,0 -64.48,70.33 0,41.6 c 0,22.16 -17.95,40.1 -40.09,40.1 l -103.78,0 0,104.82 103.78,0 c 22.14,0 40.09,17.95 40.09,40.1 l 0,63.29 103.05,0 0,-360.24 z m -327.12,48.64 -76.46,0 -97.24,69.8 c -6.82,4.89 -14.99,7.52 -23.38,7.52 l -2064.86,0 -156.96,156.96 2221.81,0 c 8.38,0 16.57,2.63 23.37,7.52 l 97.26,69.8 76.46,0 0,-311.6 z m -2103.95,-177.47 74.31,0 0,-62.72 -956.47,0 0,102.82 c 0,15.27 -8.69,29.22 -22.39,35.97 l -332.25,163.58 0,249.42 731.14,0 477.31,-477.32 c 7.52,-7.53 17.72,-11.75 28.35,-11.75 z m 939.34,32.04 579.33,0 94.78,-94.76 -674.11,0 0,94.76 z m 1211.38,-269.06 -132.22,0 c -22.16,0 -40.1,-17.96 -40.1,-40.1 l 0,-231.05 c 0,-22.14 17.94,-40.1 40.1,-40.1 l 283.92,0 0,-81.91 -62.6,-69.42 -334.14,0 0,208.69 c 0,10.63 -4.22,20.83 -11.74,28.36 l -213.79,213.79 c -7.53,7.52 -17.72,11.74 -28.35,11.74 l -896.51,0 c -10.63,0 -20.83,-4.22 -28.35,-11.74 l -213.79,-213.79 c -7.51,-7.53 -11.74,-17.73 -11.74,-28.36 l 0,-208.82 -238.34,0 0,208.82 c 0,10.63 -4.22,20.83 -11.73,28.36 l -213.79,213.79 c -7.52,7.52 -17.72,11.74 -28.36,11.74 l -897.32,0 c -10.63,0 -20.83,-4.22 -28.35,-11.74 l -213.79,-213.79 c -7.52,-7.53 -11.74,-17.73 -11.74,-28.36 l 0,-208.82 -94.79,0 0,556.82 3359.18,0 28.34,-94.11 z m 69.6,-231.06 -161.73,0 0,150.87 116.29,0 45.44,-150.87 z m 250.84,1037.34 -183.23,0 c -22.15,0 -40.1,-17.94 -40.1,-40.09 l 0,-63.3 -63.68,0 0,63.3 c 0,22.15 -17.95,40.09 -40.1,40.09 l -129.46,0 c -8.39,0 -16.56,-2.63 -23.38,-7.52 l -97.25,-69.8 -2289.1,0 -65.56,65.57 c -7.53,7.53 -17.73,11.74 -28.36,11.74 l -787.84,0 c -22.14,0 -40.09,-17.94 -40.09,-40.09 l 0,-314.47 c 0,-15.29 8.68,-29.23 22.38,-35.97 l 332.25,-163.58 0,-77.86 -314.54,0 c -22.14,0 -40.09,-17.95 -40.09,-40.1 l 0,-637 c 0,-22.14 17.95,-40.1 40.09,-40.1 l 174.99,0 c 22.14,0 40.1,17.96 40.1,40.1 l 0,232.31 190.29,190.3 864.11,0 190.3,-190.3 0,-232.31 c 0,-22.14 17.95,-40.1 40.09,-40.1 l 318.53,0 c 22.14,0 40.09,17.96 40.09,40.1 l 0,232.31 190.3,190.3 863.29,0 190.31,-190.3 0,-232.19 c 0,-22.14 17.94,-40.1 40.1,-40.1 l 392.05,0 c 11.35,0 22.17,4.82 29.77,13.24 l 84.88,94.11 c 6.64,7.35 10.32,16.93 10.32,26.84 l 0,137.44 c 0,22.15 -17.96,40.09 -40.11,40.09 l -38.45,0 -113.49,376.82 c -5.1,16.94 -20.7,28.54 -38.39,28.54 l -425.31,0 -163.24,163.21 c -7.51,7.53 -17.71,11.75 -28.35,11.75 l -636.03,0 c -22.15,0 -40.09,-17.95 -40.09,-40.1 l 0,-134.86 -704.66,0 0,102.82 c 0,22.14 -17.95,40.08 -40.1,40.08 l -97.79,0 -94.4,94.41 1971.77,0 97.23,-69.79 c 6.82,-4.89 14.99,-7.52 23.38,-7.52 l 129.46,0 c 22.15,0 40.1,17.95 40.1,40.1 l 0,63.29 63.68,0 0,-17.11 c 0,-10.04 3.75,-19.7 10.54,-27.09 l 86.95,-94.84 c 7.58,-8.27 18.31,-12.99 29.55,-12.99 l 96.29,0 c 22.14,0 40.09,17.95 40.09,40.1 l 0,440.43 c 0,22.15 -17.95,40.09 -40.09,40.09" />
   <path id="path174" style="fill:#464648;fill-opacity:1;fill-rule:nonzero;stroke:none" d="m 4399.33,4017.53 -340.14,0 c -17.6,14.08 -37.03,25.92 -57.87,35.11 l 0,292.03 398.01,0 0,-327.14 z m 0,-145.33 -51.49,-70.13 -189.32,0 c 0.11,3.04 0.24,6.07 0.24,9.1 0,45.67 -11.67,88.71 -32.15,126.16 l 272.72,0 0,-65.13 z m -504.64,-244.9 c -101.38,0 -183.87,82.55 -183.87,183.87 0,101.42 82.49,183.86 183.87,183.86 101.39,0 183.87,-82.44 183.87,-183.86 0,-101.32 -82.48,-183.87 -183.87,-183.87 z m -81.62,717.37 108.04,0 0,-270.71 c -8.68,0.88 -17.5,1.27 -26.42,1.27 -28.48,0 -55.89,-4.6 -81.62,-12.91 l 0,282.35 z m 0,328.9 c 0,24.06 19.55,43.62 43.57,43.62 l 64.47,0 0,-292.33 -108.04,0 0,248.71 z m 566.81,-248.71 -378.56,0 0,292.33 259.98,0 118.58,-292.33 z m 98.91,-32.86 c -0.1,0.59 -0.22,1.08 -0.34,1.66 -0.48,2.16 -2.11,6.75 -2.13,6.85 l -150.86,371.84 c -6.14,15.06 -20.83,25.03 -37.16,25.03 l -431.66,0 c -68.24,0 -123.76,-55.55 -123.76,-123.81 l 0,-653.89 c -62.15,-48.41 -102.25,-123.82 -102.25,-208.51 0,-145.62 118.46,-264.06 264.06,-264.06 114.28,0 211.81,72.96 248.49,174.77 l 224.96,0 c 12.76,0 24.76,6.06 32.31,16.43 l 71.29,97.01 c 5.06,6.95 7.78,15.26 7.78,23.77 l 0,525.68 c 0,0.09 -0.31,4.89 -0.73,7.23" />
   <path id="path176" style="fill:#464648;fill-opacity:1;fill-rule:nonzero;stroke:none" d="m 3894.69,3891.36 c -44.22,0 -80.19,-35.98 -80.19,-80.19 0,-44.21 35.97,-80.2 80.19,-80.2 44.22,0 80.2,35.99 80.2,80.2 0,44.21 -35.98,80.19 -80.2,80.19" />
   <path id="path178" style="fill:#464648;fill-opacity:1;fill-rule:nonzero;stroke:none" d="m 4105.14,4197.19 84.91,0 c 22.15,0 40.1,17.99 40.1,40.1 0,22.1 -17.95,40.09 -40.1,40.09 l -84.91,0 c -22.15,0 -40.1,-17.99 -40.1,-40.09 0,-22.11 17.95,-40.1 40.1,-40.1" />
   <path id="path180" style="fill:#464648;fill-opacity:1;fill-rule:nonzero;stroke:none" d="m 3488.23,3845.69 c 0,-24.06 -19.55,-43.62 -43.58,-43.62 l -254.42,0 c -24.02,0 -43.56,19.56 -43.56,43.62 l 0,105.82 c 0,23.96 19.54,43.52 43.56,43.52 l 254.42,0 c 24.03,0 43.58,-19.56 43.58,-43.52 l 0,-105.82 z m -43.58,229.54 -254.42,0 c -68.24,0 -123.76,-55.45 -123.76,-123.72 l 0,-105.82 c 0,-68.26 55.52,-123.81 123.76,-123.81 l 254.42,0 c 68.25,0 123.77,55.55 123.77,123.81 l 0,105.82 c 0,68.27 -55.52,123.72 -123.77,123.72" />
   <path id="path182" style="fill:#464648;fill-opacity:1;fill-rule:nonzero;stroke:none" d="m 2740.37,3627.3 c -101.39,0 -183.88,82.45 -183.88,183.87 0,101.42 82.49,183.86 183.88,183.86 101.38,0 183.87,-82.44 183.87,-183.86 0,-101.42 -82.49,-183.87 -183.87,-183.87 z m 0,447.93 c -145.61,0 -264.07,-118.44 -264.07,-264.06 0,-145.62 118.46,-264.06 264.07,-264.06 145.6,0 264.06,118.44 264.06,264.06 0,145.62 -118.46,264.06 -264.06,264.06" />
   <path id="path184" style="fill:#464648;fill-opacity:1;fill-rule:nonzero;stroke:none" d="m 2740.37,3891.36 c -44.23,0 -80.2,-35.98 -80.2,-80.19 0,-44.21 35.97,-80.2 80.2,-80.2 44.21,0 80.18,35.99 80.18,80.2 0,44.21 -35.97,80.19 -80.18,80.19" />
   <path id="path186" style="fill:#464648;fill-opacity:1;fill-rule:nonzero;stroke:none" d="m 2149.29,3627.3 c -101.39,0 -183.88,82.45 -183.88,183.87 0,101.42 82.49,183.86 183.88,183.86 101.39,0 183.87,-82.44 183.87,-183.86 0,-101.42 -82.48,-183.87 -183.87,-183.87 z m 0,447.93 c -145.61,0 -264.07,-118.44 -264.07,-264.06 0,-145.62 118.46,-264.06 264.07,-264.06 145.61,0 264.06,118.44 264.06,264.06 0,145.62 -118.45,264.06 -264.06,264.06" />
   <path id="path188" style="fill:#464648;fill-opacity:1;fill-rule:nonzero;stroke:none" d="m 2149.29,3891.36 c -44.21,0 -80.19,-35.98 -80.19,-80.19 0,-44.21 35.98,-80.2 80.19,-80.2 44.22,0 80.2,35.99 80.2,80.2 0,44.21 -35.98,80.19 -80.2,80.19" />
   <path id="path190" style="fill:#464648;fill-opacity:1;fill-rule:nonzero;stroke:none" d="m 3590.09,4217.82 -288.87,0 84.85,219.86 59.5,0 0,-103.67 c 0,-16.14 9.73,-30.71 24.68,-36.97 l 119.84,-49.98 0,-29.24 z m -1441.43,756.77 634.54,0.03 -248.95,-645.11 -385.59,349.63 0,295.45 z m 142,-726.25 0,-30.52 -242.34,0 c -7.35,0 -14.56,-2.05 -20.84,-5.87 l -316.19,-192.37 0,34.03 305.2,279.81 c 8.34,7.63 13.06,18.49 13,29.73 -0.06,11.35 -4.91,22.1 -13.35,29.64 l -74.07,66.3 0,240.79 c 0,13.59 -6.89,26.31 -18.3,33.64 l -210.5,136.34 0,104.75 355.19,0 0,-506.32 c 0,-11.25 4.76,-22.11 13.11,-29.64 l 209.09,-190.31 z m 311.8,35.11 262.17,679.42 139.78,-53.92 -262.18,-679.39 -139.77,53.89 z m 612.81,-65.63 -391.61,0 248.96,645.09 290.08,-263.08 -147.43,-382.01 z m 455.01,-40.1 0,96.04 c 0,16.24 -9.73,30.81 -24.67,37.07 l -119.84,49.97 0,116.97 c 0,22.2 -17.96,40.1 -40.1,40.1 l -68.65,0 30.39,78.73 c 5.97,15.55 1.81,33.06 -10.47,44.2 l -353.74,320.8 c -3.66,3.33 -7.9,5.94 -12.5,7.72 l -214.61,82.81 c -4.61,1.78 -9.49,2.68 -14.43,2.68 l -1168.49,-0.02 c -22.14,0 -40.1,-17.93 -40.1,-40.09 l 0,-166.66 c 0,-13.59 6.9,-26.3 18.31,-33.64 l 210.5,-136.33 0,-236.87 c 0,-11.35 4.86,-22.3 13.35,-29.83 l 54.44,-48.8 -285.56,-261.82 c -8.29,-7.53 -13.01,-18.29 -13.01,-29.53 l 0,-122.93 c 0,-14.48 7.82,-27.88 20.45,-34.92 6.1,-3.42 12.88,-5.18 19.65,-5.18 7.23,0 14.44,1.95 20.84,5.86 l 367.52,223.58 271.2,0 c 22.14,0 40.1,17.89 40.1,40.09 l 0,88.32 c 0,11.25 -4.77,22 -13.11,29.63 l -209.09,190.32 0,84.89 375.02,-340.05 c 3.65,-3.33 7.89,-5.97 12.49,-7.73 l 214.6,-82.83 c 4.61,-1.76 9.51,-2.64 14.44,-2.64 l 864.98,0 c 22.14,0 40.09,17.89 40.09,40.09" />
   <path id="path192" style="fill:#464648;fill-opacity:1;fill-rule:nonzero;stroke:none" d="m 7139.74,3900.56 0,-82.45 -85.64,0 0,82.45 85.64,0 z m 140.33,0 c 22.15,0 40.1,17.99 40.1,40.1 0,22.2 -17.95,40.09 -40.1,40.09 l -60.14,0 0,54.58 c 0,22.1 -17.95,40.1 -40.1,40.1 -22.14,0 -40.09,-18 -40.09,-40.1 l 0,-54.58 -85.64,0 0,54.58 c 0,22.1 -17.95,40.1 -40.1,40.1 -22.14,0 -40.1,-18 -40.1,-40.1 l 0,-54.58 -60.13,0 c -22.16,0 -40.1,-17.89 -40.1,-40.09 0,-22.11 17.94,-40.1 40.1,-40.1 l 60.13,0 0,-82.45 -60.13,0 c -22.16,0 -40.1,-17.99 -40.1,-40.09 0,-22.2 17.94,-40.1 40.1,-40.1 l 366.3,0 c 22.15,0 40.1,17.9 40.1,40.1 0,22.1 -17.95,40.09 -40.1,40.09 l -60.14,0 0,82.45 60.14,0" />
   <path id="path194" style="fill:#464648;fill-opacity:1;fill-rule:nonzero;stroke:none" d="m 9567.06,3802.27 -146.1,0 c 0.11,3.03 0.23,6.06 0.23,9.09 0,145.63 -118.45,264.07 -264.07,264.07 -50.08,0 -96.96,-13.99 -136.91,-38.34 l 0,298.58 442.4,-91.83 0,-266.21 c 0,-15.95 9.44,-30.33 24.04,-36.78 l 80.41,-35.11 0,-103.47 z M 9157.12,3627.5 c -101.38,0 -183.86,82.45 -183.86,183.86 0,101.42 82.48,183.87 183.86,183.87 101.39,0 183.88,-82.45 183.88,-183.87 0,-101.41 -82.49,-183.86 -183.88,-183.86 z m -615.1,174.77 0,135.26 383.19,0 c -20.48,-37.46 -32.14,-80.49 -32.14,-126.17 0,-3.03 0.13,-6.06 0.23,-9.09 l -351.28,0 z m -304.09,542.59 223.89,0 0,-327.14 -223.89,0 0,327.14 z m 0,328.91 c 0,23.96 19.56,43.52 43.58,43.52 l 180.31,0 0,-292.23 -223.89,0 0,248.71 z m 86.6,300.59 74.62,0 178.06,-176.88 -252.68,0 0,176.88 z m 596.05,-549.3 -378.56,0 0,292.23 259.99,0 118.57,-292.23 z m -378.56,-80.2 398,0 0,-327.14 -398,0 0,327.14 z m 1081.21,-376.13 -80.43,35.11 0,272.56 c 0,19.07 -13.34,35.41 -31.94,39.32 l -501.64,104.16 -143.06,352.57 c -6.14,15.16 -20.82,25.03 -37.16,25.03 l -138,0 -247.05,245.41 c -7.52,7.47 -17.67,11.66 -28.26,11.66 l -131.26,0 c -22.14,0 -40.09,-17.96 -40.09,-40.1 l 0,-222.64 c -50.14,-15.85 -86.6,-62.79 -86.6,-118.04 l 0,-696.14 c 0,-22.21 17.95,-40.1 40.1,-40.1 l 263.98,0 0,-175.36 c 0,-22.1 17.95,-40.1 40.1,-40.1 l 406.71,0 c 36.69,-101.8 134.21,-174.77 248.49,-174.77 114.29,0 211.82,72.97 248.51,174.77 l 201.53,0 c 22.15,0 40.1,18 40.1,40.1 l 0,169.78 c 0,15.94 -9.43,30.32 -24.03,36.78" />
   <path id="path196" style="fill:#464648;fill-opacity:1;fill-rule:nonzero;stroke:none" d="m 9157.12,3891.56 c -44.22,0 -80.19,-35.99 -80.19,-80.2 0,-44.2 35.97,-80.19 80.19,-80.19 44.23,0 80.2,35.99 80.2,80.19 0,44.21 -35.97,80.2 -80.2,80.2" />
   <path id="path198" style="fill:#464648;fill-opacity:1;fill-rule:nonzero;stroke:none" d="m 5958.28,3627.3 c -101.39,0 -183.89,82.45 -183.89,183.87 0,101.42 82.5,183.86 183.89,183.86 101.39,0 183.87,-82.44 183.87,-183.86 0,-101.42 -82.48,-183.87 -183.87,-183.87 z m 0,447.93 c -145.6,0 -264.07,-118.44 -264.07,-264.06 0,-145.62 118.47,-264.06 264.07,-264.06 145.6,0 264.06,118.44 264.06,264.06 0,145.62 -118.46,264.06 -264.06,264.06" />
   <path id="path200" style="fill:#464648;fill-opacity:1;fill-rule:nonzero;stroke:none" d="m 5958.28,3891.36 c -44.22,0 -80.2,-35.98 -80.2,-80.19 0,-44.21 35.98,-80.2 80.2,-80.2 44.22,0 80.2,35.99 80.2,80.2 0,44.21 -35.98,80.19 -80.2,80.19" />
   <path id="path202" style="fill:#464648;fill-opacity:1;fill-rule:nonzero;stroke:none" d="m 6547.16,3627.3 c -101.39,0 -183.88,82.45 -183.88,183.87 0,101.42 82.49,183.86 183.88,183.86 101.38,0 183.88,-82.44 183.88,-183.86 0,-101.42 -82.5,-183.87 -183.88,-183.87 z m 0,447.93 c -145.61,0 -264.07,-118.44 -264.07,-264.06 0,-145.62 118.46,-264.06 264.07,-264.06 145.61,0 264.06,118.44 264.06,264.06 0,145.62 -118.45,264.06 -264.06,264.06" />
   <path id="path204" style="fill:#464648;fill-opacity:1;fill-rule:nonzero;stroke:none" d="m 6547.16,3891.36 c -44.21,0 -80.2,-35.98 -80.2,-80.19 0,-44.21 35.99,-80.2 80.2,-80.2 44.22,0 80.19,35.99 80.19,80.2 0,44.21 -35.97,80.19 -80.19,80.19" />
   <path id="path206" style="fill:#464648;fill-opacity:1;fill-rule:nonzero;stroke:none" d="m 7646.71,3627.5 c -101.39,0 -183.89,82.45 -183.89,183.86 0,101.42 82.5,183.87 183.89,183.87 101.38,0 183.85,-82.45 183.85,-183.87 0,-101.41 -82.47,-183.86 -183.85,-183.86 z m 0,447.93 c -145.62,0 -264.08,-118.44 -264.08,-264.07 0,-145.62 118.46,-264.06 264.08,-264.06 145.59,0 264.05,118.44 264.05,264.06 0,145.63 -118.46,264.07 -264.05,264.07" />
   <path id="path208" style="fill:#464648;fill-opacity:1;fill-rule:nonzero;stroke:none" d="m 7646.71,3891.56 c -44.23,0 -80.2,-35.99 -80.2,-80.2 0,-44.2 35.97,-80.19 80.2,-80.19 44.21,0 80.18,35.99 80.18,80.19 0,44.21 -35.97,80.2 -80.18,80.2" />
   <path id="path210" style="fill:#464648;fill-opacity:1;fill-rule:nonzero;stroke:none" d="m 8730.75,4277.58 -84.91,0 c -22.15,0 -40.09,-18 -40.09,-40.1 0,-22.2 17.94,-40.1 40.09,-40.1 l 84.91,0 c 22.14,0 40.1,17.9 40.1,40.1 0,22.1 -17.96,40.1 -40.1,40.1" />
   <path id="path212" style="fill:#464648;fill-opacity:1;fill-rule:nonzero;stroke:none" d="m 5591.36,4075.23 c -22.14,0 -40.09,-17.9 -40.09,-40.1 l 0,-212.81 -42.42,0 c -22.14,0 -40.1,-18 -40.1,-40.1 0,-22.1 17.96,-40.1 40.1,-40.1 l 82.51,0 c 22.16,0 40.1,18 40.1,40.1 l 0,252.91 c 0,22.2 -17.94,40.1 -40.1,40.1" />
   <path id="path214" style="fill:#464648;fill-opacity:1;fill-rule:nonzero;stroke:none" d="m 8277.73,3714.93 -183.64,0 c -22.25,0 -40.35,18.1 -40.35,40.3 0,22.3 18.1,40.39 40.35,40.39 l 183.64,0 c 22.25,0 40.36,-18.09 40.36,-40.39 0,-22.2 -18.11,-40.3 -40.36,-40.3 z m 0,160.89 -183.64,0 c -66.46,0 -120.54,-54.09 -120.54,-120.59 0,-66.51 54.08,-120.49 120.54,-120.49 l 183.64,0 c 66.48,0 120.55,53.98 120.55,120.49 0,66.5 -54.07,120.59 -120.55,120.59" />
   <path id="path216" style="fill:#464648;fill-opacity:1;fill-rule:nonzero;stroke:none" d="m 5513.31,4974.36 115.68,0 0,-614.34 -115.68,0 0,614.34 z m 311.57,-614.34 -115.7,0 0,614.34 115.7,0 0,-614.34 z m 195.87,0 -115.68,0 0,614.34 115.68,0 0,-614.34 z m 195.89,0 -115.69,0 0,614.34 115.69,0 0,-614.34 z m 195.87,0 -115.69,0 0,614.34 115.69,0 0,-614.34 z m 195.9,0 -115.7,0 0,614.34 115.7,0 0,-614.34 z m 195.87,0 -115.69,0 0,614.34 115.69,0 0,-614.34 z m 195.89,0 -115.69,0 0,614.34 115.69,0 0,-614.34 z m 195.88,0 -115.69,0 0,614.34 115.69,0 0,-614.34 z m 195.88,0 -115.68,0 0,614.34 115.68,0 0,-614.34 z m 195.88,0 -115.69,0 0,614.34 115.69,0 0,-614.34 z m 195.88,0 -115.68,0 0,614.34 115.68,0 0,-614.34 z m 195.86,0 -115.67,0 0,614.34 115.67,0 0,-614.34 z m 0,-142.39 -2466.24,0 0,62.2 2466.24,0 0,-62.2 z m 40.1,-80.2 c 22.14,0 40.1,18 40.1,40.1 l 0,836.92 c 0,22.14 -17.96,40.1 -40.1,40.1 l -2546.44,0 c -22.15,0 -40.1,-17.96 -40.1,-40.1 l 0,-836.92 c 0,-22.1 17.95,-40.1 40.1,-40.1 l 2546.44,0" />
   <path id="path218" style="fill:#464648;fill-opacity:1;fill-rule:nonzero;stroke:none" d="m 10907.9,4436.5 c 7.3,-5.57 15.9,-8.31 24.5,-8.31 12,0 23.8,5.38 31.8,15.55 l 197.4,255.85 c 13.5,17.6 10.3,42.73 -7.2,56.23 -17.5,13.59 -42.8,10.37 -56.3,-7.24 l -197.4,-255.84 c -13.6,-17.51 -10.4,-42.64 7.2,-56.24" />
   <path id="path220" style="fill:#464648;fill-opacity:1;fill-rule:nonzero;stroke:none" d="m 11145.9,4436.5 c 7.2,-5.57 15.8,-8.31 24.4,-8.31 12.1,0 23.9,5.38 31.8,15.55 l 197.5,255.85 c 13.5,17.6 10.2,42.73 -7.3,56.23 -17.5,13.59 -42.7,10.37 -56.2,-7.24 l -197.5,-255.84 c -13.6,-17.51 -10.3,-42.64 7.3,-56.24" />
   <path id="path222" style="fill:#464648;fill-opacity:1;fill-rule:nonzero;stroke:none" d="m 11383.8,4436.5 c 7.3,-5.57 16,-8.31 24.5,-8.31 12,0 23.8,5.38 31.8,15.55 l 197.4,255.85 c 13.5,17.6 10.3,42.73 -7.2,56.23 -17.5,13.59 -42.8,10.37 -56.3,-7.24 l -197.4,-255.84 c -13.6,-17.51 -10.3,-42.64 7.2,-56.24" />
   <path id="path224" style="fill:#464648;fill-opacity:1;fill-rule:nonzero;stroke:none" d="m 10651.6,4075.23 c -22.2,0 -40.1,-17.9 -40.1,-40.1 l 0,-212.81 -42.4,0 c -22.2,0 -40.1,-18 -40.1,-40.1 0,-22.2 17.9,-40.1 40.1,-40.1 l 82.5,0 c 22.1,0 40.1,17.9 40.1,40.1 l 0,252.91 c 0,22.2 -18,40.1 -40.1,40.1" />
   <path id="path226" style="fill:#464648;fill-opacity:1;fill-rule:nonzero;stroke:none" d="m 13052.4,4017.53 -340.2,0 c -17.6,14.08 -37,25.92 -57.9,35.11 l 0,292.03 398.1,0 0,-327.14 z m 0,-145.33 -51.6,-70.13 -189.2,0 c 0.1,3.04 0.2,6.07 0.2,9.1 0,45.67 -11.6,88.71 -32.2,126.16 l 272.8,0 0,-65.13 z m -504.7,-244.9 c -101.4,0 -183.8,82.55 -183.8,183.87 0,101.42 82.4,183.86 183.8,183.86 101.5,0 183.9,-82.44 183.9,-183.86 0,-101.32 -82.4,-183.87 -183.9,-183.87 z m -81.6,717.37 108,0 0,-270.71 c -8.7,0.88 -17.5,1.27 -26.4,1.27 -28.4,0 -55.9,-4.6 -81.6,-12.91 l 0,282.35 z m 0,328.9 c 0,24.06 19.5,43.62 43.6,43.62 l 64.4,0 0,-292.33 -108,0 0,248.71 z m 566.8,-248.71 -378.6,0 0,292.33 260,0 118.6,-292.33 z m 98.9,-32.95 c -0.1,0.58 -0.2,1.27 -0.4,1.85 -0.4,2.06 -2,6.65 -2,6.75 l -150.9,371.84 c -6.1,15.06 -20.9,25.03 -37.2,25.03 l -431.6,0 c -68.3,0 -123.8,-55.55 -123.8,-123.81 l 0,-653.89 c -62.1,-48.41 -102.2,-123.82 -102.2,-208.51 0,-145.62 118.4,-264.06 264,-264.06 114.3,0 211.9,72.96 248.6,174.77 l 224.9,0 c 12.7,0 24.7,6.06 32.3,16.43 l 71.3,97.01 c 5,6.95 7.8,15.26 7.8,23.77 l 0,525.68 c 0,0.09 -0.3,4.89 -0.8,7.14" />
   <path id="path228" style="fill:#464648;fill-opacity:1;fill-rule:nonzero;stroke:none" d="m 12547.7,3891.36 c -44.2,0 -80.2,-35.98 -80.2,-80.19 0,-44.21 36,-80.2 80.2,-80.2 44.2,0 80.2,35.99 80.2,80.2 0,44.21 -36,80.19 -80.2,80.19" />
   <path id="path230" style="fill:#464648;fill-opacity:1;fill-rule:nonzero;stroke:none" d="m 12758.2,4197.19 84.9,0 c 22.1,0 40.1,17.99 40.1,40.1 0,22.1 -18,40.09 -40.1,40.09 l -84.9,0 c -22.2,0 -40.1,-17.99 -40.1,-40.09 0,-22.11 17.9,-40.1 40.1,-40.1" />
   <path id="path232" style="fill:#464648;fill-opacity:1;fill-rule:nonzero;stroke:none" d="m 11018.4,3627.3 c -101.3,0 -183.8,82.45 -183.8,183.87 0,101.42 82.5,183.86 183.8,183.86 101.5,0 184,-82.44 184,-183.86 0,-101.42 -82.5,-183.87 -184,-183.87 z m 0,447.93 c -145.5,0 -264,-118.44 -264,-264.06 0,-145.62 118.5,-264.06 264,-264.06 145.7,0 264.2,118.44 264.2,264.06 0,145.62 -118.5,264.06 -264.2,264.06" />
   <path id="path234" style="fill:#464648;fill-opacity:1;fill-rule:nonzero;stroke:none" d="m 11018.4,3891.36 c -44.2,0 -80.2,-35.98 -80.2,-80.19 0,-44.21 36,-80.2 80.2,-80.2 44.3,0 80.2,35.99 80.2,80.2 0,44.21 -35.9,80.19 -80.2,80.19" />
   <path id="path236" style="fill:#464648;fill-opacity:1;fill-rule:nonzero;stroke:none" d="m 12207.5,4217.82 -1876.8,0 0,756.79 1876.8,0 0,-756.79 z m 80.2,796.88 c 0,22.16 -18,40.09 -40.1,40.09 l -1957,0 c -22.2,0 -40.1,-17.93 -40.1,-40.09 l 0,-836.98 c 0,-22.2 17.9,-40.09 40.1,-40.09 l 1957,0 c 22.1,0 40.1,17.89 40.1,40.09 l 0,836.98" />
   <path id="path238" style="fill:#464648;fill-opacity:1;fill-rule:nonzero;stroke:none" d="m 11922.9,3913.18 0,-90.86 -279.4,0 0,90.86 279.4,0 z m 257.5,0 c 22.1,0 40.1,17.99 40.1,40.09 0,22.2 -18,40.1 -40.1,40.1 l -177.3,0 0,41.76 c 0,22.2 -17.9,40.1 -40.1,40.1 -22.1,0 -40.1,-17.9 -40.1,-40.1 l 0,-41.76 -279.4,0 0,41.76 c 0,22.2 -18,40.1 -40.1,40.1 -22.1,0 -40.1,-17.9 -40.1,-40.1 l 0,-41.76 -177.3,0 c -22.1,0 -40.1,-17.9 -40.1,-40.1 0,-22.1 18,-40.09 40.1,-40.09 l 177.3,0 0,-90.86 -177.3,0 c -22.1,0 -40.1,-18 -40.1,-40.1 0,-22.2 18,-40.1 40.1,-40.1 l 794.4,0 c 22.1,0 40.1,17.9 40.1,40.1 0,22.1 -18,40.1 -40.1,40.1 l -177.3,0 0,90.86 177.3,0" />
   <path id="path240" style="fill:#464648;fill-opacity:1;fill-rule:nonzero;stroke:none" d="m 4539.98,9706.69 -146.11,0 c 0.11,3.02 0.22,6.04 0.22,9.1 0,145.6 -118.45,264.05 -264.04,264.05 -50.1,0 -96.97,-14.02 -136.91,-38.33 l 0,298.59 442.4,-91.9 0,-266.16 c 0,-15.93 9.42,-30.36 24.02,-36.74 l 80.42,-35.17 0,-103.44 z M 4130.05,9531.9 c -101.39,0 -183.89,82.49 -183.89,183.89 0,101.37 82.5,183.86 183.89,183.86 101.38,0 183.85,-82.49 183.85,-183.86 0,-101.4 -82.47,-183.89 -183.85,-183.89 z m -615.14,174.79 0,135.25 383.2,0 c -20.48,-37.51 -32.15,-80.49 -32.15,-126.15 0,-3.06 0.14,-6.08 0.24,-9.1 l -351.29,0 z m -192.4,542.61 112.24,0 0,-327.17 -112.24,0 0,327.17 z m 0,328.9 c 0,24 19.54,43.5 43.57,43.5 l 64.49,0 0,-292.2 -108.06,0 0,248.7 z m 192.4,43.5 259.99,0 118.59,-292.2 -378.58,0 0,292.2 z m 0.02,-372.4 397.99,0 0,-327.17 -397.99,0 0,327.17 z m 1081.22,-376.21 -80.42,35.18 0,272.63 c 0,19 -13.34,35.4 -31.95,39.2 l -501.66,104.2 -143.06,352.6 c -6.13,15.1 -20.83,25 -37.15,25 l -435.83,0 c -68.24,0 -123.76,-55.5 -123.76,-123.7 l 0,-696.16 c 0,-22.15 17.95,-40.1 40.09,-40.1 l 152.32,0 0,-175.35 c 0,-22.14 17.94,-40.09 40.09,-40.09 l 406.72,0 c 36.69,-101.8 134.22,-174.79 248.51,-174.79 114.27,0 211.79,72.99 248.48,174.79 l 201.55,0 c 22.14,0 40.1,17.95 40.1,40.09 l 0,169.76 c 0,15.94 -9.44,30.35 -24.03,36.74" />
   <path id="path242" style="fill:#464648;fill-opacity:1;fill-rule:nonzero;stroke:none" d="m 4130.05,9795.97 c -44.23,0 -80.21,-35.97 -80.21,-80.18 0,-44.23 35.98,-80.21 80.21,-80.21 44.2,0 80.17,35.98 80.17,80.21 0,44.21 -35.97,80.18 -80.17,80.18" />
   <path id="path244" style="fill:#464648;fill-opacity:1;fill-rule:nonzero;stroke:none" d="m 1986.19,9531.91 c -101.39,0 -183.88,82.48 -183.88,183.87 0,101.38 82.49,183.87 183.88,183.87 101.38,0 183.86,-82.49 183.86,-183.87 0,-101.39 -82.48,-183.87 -183.86,-183.87 z m 0,447.93 c -145.61,0 -264.07,-118.46 -264.07,-264.06 0,-145.61 118.46,-264.05 264.07,-264.05 145.61,0 264.06,118.44 264.06,264.05 0,145.6 -118.45,264.06 -264.06,264.06" />
   <path id="path246" style="fill:#464648;fill-opacity:1;fill-rule:nonzero;stroke:none" d="m 1986.19,9795.96 c -44.21,0 -80.19,-35.97 -80.19,-80.18 0,-44.23 35.98,-80.21 80.19,-80.21 44.22,0 80.2,35.98 80.2,80.21 0,44.21 -35.98,80.18 -80.2,80.18" />
   <path id="path248" style="fill:#464648;fill-opacity:1;fill-rule:nonzero;stroke:none" d="m 2575.07,9531.91 c -101.39,0 -183.88,82.48 -183.88,183.87 0,101.38 82.49,183.87 183.88,183.87 101.38,0 183.87,-82.49 183.87,-183.87 0,-101.39 -82.49,-183.87 -183.87,-183.87 z m 0,447.93 c -145.61,0 -264.07,-118.46 -264.07,-264.06 0,-145.61 118.46,-264.05 264.07,-264.05 145.61,0 264.06,118.44 264.06,264.05 0,145.6 -118.45,264.06 -264.06,264.06" />
   <path id="path250" style="fill:#464648;fill-opacity:1;fill-rule:nonzero;stroke:none" d="m 2575.07,9795.96 c -44.21,0 -80.19,-35.97 -80.19,-80.18 0,-44.23 35.98,-80.21 80.19,-80.21 44.22,0 80.19,35.98 80.19,80.21 0,44.21 -35.97,80.18 -80.19,80.18" />
   <path id="path252" style="fill:#464648;fill-opacity:1;fill-rule:nonzero;stroke:none" d="m 3703.67,10182 -84.92,0 c -22.16,0 -40.1,-18 -40.1,-40.1 0,-22.2 17.94,-40.1 40.1,-40.1 l 84.92,0 c 22.15,0 40.1,17.9 40.1,40.1 0,22.1 -17.95,40.1 -40.1,40.1" />
   <path id="path254" style="fill:#464648;fill-opacity:1;fill-rule:nonzero;stroke:none" d="m 3206.1,9619.3 -183.63,0 c -22.25,0 -40.36,18.11 -40.36,40.36 0,22.25 18.11,40.35 40.36,40.35 l 183.63,0 c 22.25,0 40.34,-18.1 40.34,-40.35 0,-22.25 -18.09,-40.36 -40.34,-40.36 z m 0,160.9 -183.63,0 c -66.47,0 -120.56,-54.08 -120.56,-120.54 0,-66.47 54.09,-120.55 120.56,-120.55 l 183.63,0 c 66.46,0 120.54,54.08 120.54,120.55 0,66.46 -54.08,120.54 -120.54,120.54" />
   <path id="path256" style="fill:#464648;fill-opacity:1;fill-rule:nonzero;stroke:none" d="m 1577.54,10600.3 1180.06,0 c 12.07,0 23.51,5.5 31.12,14.8 l 175.08,215.7 136.28,0 0,-708.2 -1262.54,0 -260,146.4 0,331.3 z m 249.48,-557.9 1313.16,0 c 22.14,0 40.1,18 40.1,40.1 l 0,788.4 c 0,22.1 -17.96,40 -40.1,40 l -195.47,0 c -12.08,0 -23.51,-5.4 -31.12,-14.8 l -175.08,-215.6 -1201.08,0 c -22.14,0 -40.08,-17.9 -40.08,-40.1 l 0,-394.8 c 0,-14.5 7.8,-27.9 20.43,-35 l 289.58,-163 c 6,-3.4 12.78,-5.2 19.66,-5.2" />
   <path id="path258" style="fill:#464648;fill-opacity:1;fill-rule:nonzero;stroke:none" d="m 1923.22,10216.7 c 7.43,-6 16.37,-8.9 25.24,-8.9 11.67,0 23.24,5 31.15,14.8 l 187.12,230.4 c 13.97,17.2 11.34,42.4 -5.85,56.4 -17.19,14 -42.44,11.3 -56.4,-5.8 l -187.12,-230.5 c -13.96,-17.2 -11.34,-42.4 5.86,-56.4" />
   <path id="path260" style="fill:#464648;fill-opacity:1;fill-rule:nonzero;stroke:none" d="m 2176.65,10216.7 c 7.43,-6 16.37,-8.9 25.24,-8.9 11.66,0 23.24,5 31.16,14.8 l 187.11,230.4 c 13.97,17.2 11.34,42.4 -5.85,56.4 -17.2,14 -42.45,11.3 -56.4,-5.8 l -187.12,-230.5 c -13.96,-17.2 -11.34,-42.4 5.86,-56.4" />
   <path id="path262" style="fill:#464648;fill-opacity:1;fill-rule:nonzero;stroke:none" d="m 2430.09,10216.7 c 7.43,-6 16.37,-8.9 25.24,-8.9 11.67,0 23.24,5 31.16,14.8 l 187.11,230.4 c 13.96,17.2 11.34,42.4 -5.85,56.4 -17.2,14 -42.45,11.3 -56.4,-5.8 l -187.11,-230.5 c -13.97,-17.2 -11.35,-42.4 5.85,-56.4" />
   <path id="path264" style="fill:#464648;fill-opacity:1;fill-rule:nonzero;stroke:none" d="m 2402.42,2591.02 -157.93,0 c -22.14,0 -40.09,-18 -40.09,-40.1 0,-22.2 17.95,-40.1 40.09,-40.1 l 157.93,0 c 22.14,0 40.1,17.9 40.1,40.1 0,22.1 -17.96,40.1 -40.1,40.1" />
   <path id="path266" style="fill:#464648;fill-opacity:1;fill-rule:nonzero;stroke:none" d="m 2402.42,2389.16 -157.93,0 c -22.14,0 -40.09,-18 -40.09,-40.1 0,-22.1 17.95,-40.1 40.09,-40.1 l 157.93,0 c 22.14,0 40.1,18 40.1,40.1 0,22.1 -17.96,40.1 -40.1,40.1" />
   <path id="path268" style="fill:#464648;fill-opacity:1;fill-rule:nonzero;stroke:none" d="m 4906.77,1746.22 -146.11,0 c 0.11,3.03 0.22,6.07 0.22,9.1 0,145.62 -118.44,264.06 -264.04,264.06 -50.09,0 -96.96,-13.99 -136.91,-38.34 l 0,298.58 442.39,-91.83 0,-266.22 c 0,-15.94 9.44,-30.31 24.03,-36.77 l 80.42,-35.11 0,-103.47 z m -409.93,-174.77 c -101.39,0 -183.89,82.55 -183.89,183.87 0,101.41 82.5,183.86 183.89,183.86 101.37,0 183.86,-82.45 183.86,-183.86 0,-101.32 -82.49,-183.87 -183.86,-183.87 z m -615.13,174.77 0,135.26 383.19,0 c -20.48,-37.46 -32.13,-80.49 -32.13,-126.16 0,-3.03 0.12,-6.07 0.22,-9.1 l -351.28,0 z m 0,915.02 259.98,0 118.59,-292.23 -378.57,0 0,292.23 z m 398.01,-699.57 -397.99,0 0,327.15 397.99,0 0,-327.15 z m -478.18,0 -112.24,0 0,327.15 112.24,0 0,-327.15 z m -112.24,656.04 c 0,24.06 19.55,43.53 43.57,43.53 l 64.49,0 0,-292.23 -108.06,0 0,248.7 z m 1273.64,-705.03 -80.42,35.11 0,272.66 c 0,18.98 -13.34,35.41 -31.95,39.22 l -501.65,104.16 -143.06,352.66 c -6.14,15.06 -20.83,24.94 -37.15,24.94 l -435.84,0 c -68.24,0 -123.76,-55.45 -123.76,-123.72 l 0,-696.14 c 0,-22.1 17.95,-40.09 40.1,-40.09 l 152.31,0 0,-175.36 c 0,-22.1 17.95,-40.1 40.09,-40.1 l 406.71,0 c 36.7,-101.81 134.23,-174.77 248.52,-174.77 114.27,0 211.8,72.96 248.48,174.77 l 201.55,0 c 22.15,0 40.1,18 40.1,40.1 l 0,169.78 c 0,15.94 -9.43,30.32 -24.03,36.78" />
   <path id="path270" style="fill:#464648;fill-opacity:1;fill-rule:nonzero;stroke:none" d="m 4496.82,1835.51 c -44.21,0 -80.19,-35.99 -80.19,-80.19 0,-44.21 35.98,-80.2 80.19,-80.2 44.22,0 80.2,35.99 80.2,80.2 0,44.2 -35.98,80.19 -80.2,80.19" />
   <path id="path272" style="fill:#464648;fill-opacity:1;fill-rule:nonzero;stroke:none" d="m 2237.14,1835.51 c -44.21,0 -80.19,-35.99 -80.19,-80.19 0,-44.21 35.98,-80.2 80.19,-80.2 44.22,0 80.2,35.99 80.2,80.2 0,44.2 -35.98,80.19 -80.2,80.19" />
   <path id="path274" style="fill:#464648;fill-opacity:1;fill-rule:nonzero;stroke:none" d="m 2826.04,1571.45 c -101.39,0 -183.88,82.45 -183.88,183.87 0,101.41 82.49,183.86 183.88,183.86 101.38,0 183.85,-82.45 183.85,-183.86 0,-101.42 -82.47,-183.87 -183.85,-183.87 z m -588.88,0 c -101.39,0 -183.89,82.45 -183.89,183.87 0,101.41 82.5,183.86 183.89,183.86 101.38,0 183.86,-82.45 183.86,-183.86 0,-101.42 -82.48,-183.87 -183.86,-183.87 z m -462.59,143.28 -103.37,0 0,166.75 181.66,0 -78.29,-166.75 z m -103.37,394.52 1750.85,0 0,-147.58 -431.54,0 c -45.15,36.09 -102.32,57.71 -164.47,57.71 -62.16,0 -119.33,-21.62 -164.49,-57.71 l -259.92,0 c -45.16,36.09 -102.32,57.71 -164.47,57.71 -62.17,0 -119.33,-21.62 -164.48,-57.71 l -401.48,0 0,147.58 z m 136.64,311.98 c 0,173.31 141.04,314.33 314.39,314.33 l 985.44,0 c 173.35,0 314.38,-141.02 314.38,-314.33 l 0,-32.07 -565.4,0 c -22.14,0 -40.1,-18 -40.1,-40.1 0,-22.1 17.96,-40.1 40.1,-40.1 l 565.4,0 0,-119.51 -1614.21,0 0,231.78 z m 395.98,474.73 192.97,0 0,-80.2 -192.97,0 0,80.2 z m 629.28,0 192.97,0 0,-80.2 -192.97,0 0,80.2 z m 629.05,-1014.48 c 22.15,0 40.1,17.99 40.1,40.09 l 0,499.66 c 0,217.51 -177.01,394.53 -394.58,394.53 l -1.4,0 0,120.29 c 0,22.2 -17.95,40.1 -40.1,40.1 l -273.17,0 c -22.14,0 -40.1,-17.9 -40.1,-40.1 l 0,-120.29 -275.91,0 0,120.29 c 0,22.2 -17.95,40.1 -40.1,40.1 l -273.16,0 c -22.14,0 -40.1,-17.9 -40.1,-40.1 l 0,-120.29 -1.4,0 c -217.57,0 -394.57,-177.02 -394.57,-394.53 l 0,-231.78 -96.56,0 c -22.14,0 -40.09,-18 -40.09,-40.1 l 0,-474.72 c 0,-22.1 17.95,-40.1 40.09,-40.1 l 168.94,0 c 15.55,0 29.69,9 36.29,23.08 l 105.13,223.87 63.77,0 c -20.49,-37.46 -32.14,-80.49 -32.14,-126.16 0,-145.63 118.45,-264.07 264.07,-264.07 145.6,0 264.05,118.44 264.05,264.07 0,45.67 -11.66,88.7 -32.15,126.16 l 125.06,0 c -20.49,-37.46 -32.16,-80.49 -32.16,-126.16 0,-145.63 118.47,-264.07 264.08,-264.07 145.59,0 264.05,118.44 264.05,264.07 0,45.67 -11.66,88.7 -32.15,126.16 l 404.21,0" />
   <path id="path276" style="fill:#464648;fill-opacity:1;fill-rule:nonzero;stroke:none" d="m 2826.03,1835.51 c -44.22,0 -80.2,-35.99 -80.2,-80.19 0,-44.21 35.98,-80.2 80.2,-80.2 44.21,0 80.18,35.99 80.18,80.2 0,44.2 -35.97,80.19 -80.18,80.19" />
   <path id="path278" style="fill:#464648;fill-opacity:1;fill-rule:nonzero;stroke:none" d="m 3985.54,2141.33 84.92,0 c 22.15,0 40.09,17.9 40.09,40.1 0,22.1 -17.94,40.1 -40.09,40.1 l -84.92,0 c -22.15,0 -40.1,-18 -40.1,-40.1 0,-22.2 17.95,-40.1 40.1,-40.1" />
   <path id="path280" style="fill:#464648;fill-opacity:1;fill-rule:nonzero;stroke:none" d="m 3572.9,1658.88 -299.47,0 c -22.25,0 -40.37,18.1 -40.37,40.3 0,22.3 18.12,40.39 40.37,40.39 l 299.47,0 c 22.24,0 40.33,-18.09 40.33,-40.39 0,-22.2 -18.09,-40.3 -40.33,-40.3 z m 0,160.89 -299.47,0 c -66.47,0 -120.55,-54.09 -120.55,-120.59 0,-66.41 54.08,-120.49 120.55,-120.49 l 299.47,0 c 66.45,0 120.53,54.08 120.53,120.49 0,66.5 -54.08,120.59 -120.53,120.59" />
   <path id="path282" style="fill:#464648;fill-opacity:1;fill-rule:nonzero;stroke:none" d="m 12800.1,2362.65 -84.9,0 c -22.1,0 -40.1,-17.9 -40.1,-40.1 0,-22.1 18,-40.09 40.1,-40.09 l 84.9,0 c 22.2,0 40.1,17.99 40.1,40.09 0,22.2 -17.9,40.1 -40.1,40.1" />
   <path id="path284" style="fill:#464648;fill-opacity:1;fill-rule:nonzero;stroke:none" d="m 13092.5,1925.68 -81.4,-91.73 -259.3,0 c -1.7,55.45 -17,107.58 -42.7,153.05 l 383.4,0 0,-61.32 z m -673.3,-354.23 c -139.2,0 -252.5,113.25 -252.5,252.52 0,139.27 113.3,252.62 252.5,252.62 139.3,0 252.6,-113.35 252.6,-252.62 0,-139.27 -113.3,-252.52 -252.6,-252.52 z m -115.1,858.59 227,0 0,-292.72 c -34.9,12.52 -72.7,19.37 -111.9,19.37 -73.5,0 -141.5,-23.96 -196.6,-64.55 l 0,238.82 81.5,99.08 z m 119,328.8 c 0,24.06 19.6,43.62 43.6,43.62 l 64.4,0 0,-292.23 -108,0 0,248.61 z m 188.2,43.62 260.1,0 118.5,-292.23 -378.6,0 0,292.23 z m 34.6,-735.26 c -10.8,10.17 -22.4,19.56 -34.5,28.17 l 0,334.57 398,0 0,-216.24 -66.1,-146.5 -297.4,0 z m 486.7,0 -101.2,0 54.6,121.47 c 2.4,5.18 3.6,10.76 3.6,16.43 l 0,264.94 c 0,0.1 0,9.29 -3,15.16 l -151.1,372.42 c -6.1,15.16 -20.8,25.04 -37.1,25.04 l -431.7,0 c -68.3,0 -123.8,-55.55 -123.8,-123.82 l 0,-248.61 -57.8,0 c -11.9,0 -23.3,-5.37 -30.9,-14.67 l -102.7,-124.69 c -5.9,-7.24 -9.1,-16.24 -9.1,-25.53 l 0,-337.02 c -35.3,-52.81 -55.9,-116.18 -55.9,-184.35 0,-183.47 149.3,-332.72 332.7,-332.72 159.3,0 292.8,112.67 325.2,262.5 l 284.8,0 c 11.5,0 22.4,4.89 29.9,13.5 l 103.5,116.57 c 6.5,7.34 10.1,16.82 10.1,26.61 l 0,116.67 c 0,22.2 -18,40.1 -40.1,40.1" />
   <path id="path286" style="fill:#464648;fill-opacity:1;fill-rule:nonzero;stroke:none" d="m 12419.2,1740.64 c -45.9,0 -83.4,37.36 -83.4,83.33 0,46.07 37.5,83.42 83.4,83.42 46,0 83.4,-37.35 83.4,-83.42 0,-45.97 -37.4,-83.33 -83.4,-83.33 z m 0,246.95 c -90.1,0 -163.6,-73.35 -163.6,-163.62 0,-90.17 73.5,-163.52 163.6,-163.52 90.2,0 163.6,73.35 163.6,163.52 0,90.27 -73.4,163.62 -163.6,163.62" />
   <path id="path288" style="fill:#464648;fill-opacity:1;fill-rule:nonzero;stroke:none" d="m 11982.9,2067.3 -650.9,0 c -59.5,55.45 -139.2,89.39 -226.7,89.39 -87.5,0 -167.2,-33.94 -226.7,-89.39 l -356.6,0 0,366.55 189.3,368.61 91.9,0 0,-99.17 c 0,-76.18 62,-138.09 138.1,-138.09 l 209.8,0 c 76,0 138.1,61.91 138.1,138.09 l 0,99.17 131.5,0 0,-99.17 c 0,-76.18 62,-138.09 138.1,-138.09 l 209.8,0 c 76.1,0 138.1,61.91 138.1,138.09 l 0,99.17 76.2,0 0,-735.16 z m -89.3,-233.35 -273.1,0 -67.8,153.15 408.6,0 -67.7,-153.15 z m -788.3,-262.5 c -139.3,0 -252.5,113.25 -252.5,252.52 0,139.27 113.2,252.62 252.5,252.62 139.3,0 252.5,-113.35 252.5,-252.62 0,-139.27 -113.2,-252.52 -252.5,-252.52 z m 103.7,1231.01 0,-99.17 c 0,-31.98 -26.1,-57.9 -57.9,-57.9 l -209.8,0 c -31.9,0 -57.9,25.92 -57.9,57.9 l 0,99.17 325.6,0 z m 617.5,0 0,-99.17 c 0,-31.98 -26.1,-57.9 -57.9,-57.9 l -209.8,0 c -31.9,0 -57.9,25.92 -57.9,57.9 l 0,99.17 325.6,0 z m 196.5,80.2 -1336.2,0 c -15,0 -28.7,-8.41 -35.6,-21.81 l -205,-399.03 c -2.9,-5.67 -4.4,-11.93 -4.4,-18.28 l 0,-416.34 c 0,-22.2 17.9,-40.1 40.1,-40.1 l 119.5,0 0,-141.22 c 0,-22.11 18,-40.1 40.1,-40.1 22.1,0 40.1,17.99 40.1,40.1 l 0,141.22 133.8,0 c -27.2,-48.21 -42.8,-103.86 -42.8,-163.13 0,-183.47 149.2,-332.72 332.7,-332.72 183.5,0 332.7,149.25 332.7,332.72 0,59.27 -15.5,114.92 -42.8,163.13 l 69.8,0 92.8,-209.49 c 6.5,-14.57 20.8,-23.86 36.7,-23.86 l 325.1,0 c 15.9,0 30.3,9.29 36.6,23.86 l 103.4,233.35 c 2.3,4.99 3.5,10.47 3.5,16.24 l 0,815.36 c 0,22.1 -18,40.1 -40.1,40.1" />
   <path id="path290" style="fill:#464648;fill-opacity:1;fill-rule:nonzero;stroke:none" d="m 11105.3,1740.64 c -46,0 -83.3,37.36 -83.3,83.33 0,46.07 37.3,83.42 83.3,83.42 46,0 83.4,-37.35 83.4,-83.42 0,-45.97 -37.4,-83.33 -83.4,-83.33 z m 0,246.95 c -90.2,0 -163.5,-73.35 -163.5,-163.62 0,-90.17 73.3,-163.52 163.5,-163.52 90.2,0 163.6,73.35 163.6,163.52 0,90.27 -73.4,163.62 -163.6,163.62" />
   <path id="path292" style="fill:#464648;fill-opacity:1;fill-rule:nonzero;stroke:none" d="m 11767.1,2362.65 -1029.3,0 c -22.1,0 -40.1,-17.9 -40.1,-40.1 0,-22.1 18,-40.09 40.1,-40.09 l 1029.3,0 c 22.2,0 40.1,17.99 40.1,40.09 0,22.2 -17.9,40.1 -40.1,40.1" />
   <path id="path294" style="fill:#464648;fill-opacity:1;fill-rule:nonzero;stroke:none" d="m 9568.09,1961.67 -206.52,0 c -45.15,36.09 -102.3,57.71 -164.46,57.71 -9.11,0 -18.14,-0.49 -27.02,-1.38 l 0,270.82 398,0 0,-327.15 z m 0,-145.33 -51.48,-70.12 -55.67,0 c 0.1,3.03 0.23,6.07 0.23,9.1 0,45.67 -11.67,88.7 -32.15,126.16 l 139.07,0 0,-65.14 z m -370.98,-244.89 c -101.39,0 -183.87,82.55 -183.87,183.87 0,101.41 82.48,183.86 183.87,183.86 101.38,0 183.87,-82.45 183.87,-183.86 0,-101.32 -82.49,-183.87 -183.87,-183.87 z m -331.1,582.2 0,135.17 223.88,0 0,-292.23 c -20.6,-9.2 -39.81,-20.93 -57.24,-34.92 l -66.59,0 -100.05,191.98 z m -0.02,464.06 c 0,24.06 19.55,43.63 43.57,43.63 l 180.32,0 0,-292.33 -223.89,0 0,248.7 z m 304.08,43.63 259.99,0 118.58,-292.33 -378.57,0 0,292.33 z m 475.26,-317.37 -151.11,372.52 c -6.13,15.06 -20.83,25.04 -37.16,25.04 l -547.5,0 c -68.24,0 -123.76,-55.55 -123.76,-123.82 l 0.01,-473.83 c 0,-6.46 1.56,-12.82 4.54,-18.59 l 115.84,-222.2 c 6.9,-13.3 20.6,-21.61 35.56,-21.61 l 23.44,0 c -20.49,-37.46 -32.15,-80.49 -32.15,-126.16 0,-145.63 118.47,-264.07 264.07,-264.07 114.29,0 211.81,72.96 248.49,174.77 l 91.31,0 c 12.76,0 24.76,6.07 32.31,16.43 l 71.29,97.02 c 5.06,6.94 7.77,15.26 7.77,23.77 l 0,525.67 c 0,0.1 -0.03,10.07 -2.95,15.06" />
   <path id="path296" style="fill:#464648;fill-opacity:1;fill-rule:nonzero;stroke:none" d="m 9197.11,1835.51 c -44.21,0 -80.18,-35.99 -80.18,-80.19 0,-44.21 35.97,-80.2 80.18,-80.2 44.23,0 80.2,35.99 80.2,80.2 0,44.2 -35.97,80.19 -80.2,80.19" />
   <path id="path298" style="fill:#464648;fill-opacity:1;fill-rule:nonzero;stroke:none" d="m 8044.77,1571.45 c -101.39,0 -183.89,82.55 -183.89,183.87 0,101.41 82.5,183.86 183.89,183.86 101.38,0 183.87,-82.45 183.87,-183.86 0,-101.32 -82.49,-183.87 -183.87,-183.87 z m 0,447.93 c -145.62,0 -264.09,-118.44 -264.09,-264.06 0,-145.63 118.47,-264.07 264.09,-264.07 145.6,0 264.06,118.44 264.06,264.07 0,145.62 -118.46,264.06 -264.06,264.06" />
   <path id="path300" style="fill:#464648;fill-opacity:1;fill-rule:nonzero;stroke:none" d="m 8044.77,1835.51 c -44.23,0 -80.2,-35.99 -80.2,-80.19 0,-44.21 35.97,-80.2 80.2,-80.2 44.21,0 80.18,35.99 80.18,80.2 0,44.2 -35.97,80.19 -80.18,80.19" />
   <path id="path302" style="fill:#464648;fill-opacity:1;fill-rule:nonzero;stroke:none" d="m 9273.89,2141.33 84.93,0 c 22.14,0 40.1,18 40.1,40.1 0,22.1 -17.96,40.1 -40.1,40.1 l -84.93,0 c -22.14,0 -40.09,-18 -40.09,-40.1 0,-22.1 17.95,-40.1 40.09,-40.1" />
   <path id="path304" style="fill:#464648;fill-opacity:1;fill-rule:nonzero;stroke:none" d="m 8791.91,1702.41 c 0,-23.96 -19.55,-43.53 -43.58,-43.53 l -254.4,0 c -24.02,0 -43.58,19.57 -43.58,43.53 l 0,105.82 c 0,24.06 19.56,43.61 43.58,43.61 l 254.4,0 c 24.03,0 43.58,-19.55 43.58,-43.61 l 0,-105.82 z m -43.58,229.63 -254.4,0 c -68.25,0 -123.77,-55.55 -123.77,-123.81 l 0,-105.82 c 0,-68.17 55.52,-123.72 123.77,-123.72 l 254.4,0 c 68.24,0 123.76,55.55 123.76,123.72 l 0,105.82 c 0,68.26 -55.52,123.81 -123.76,123.81" />
   <path id="path306" style="fill:#464648;fill-opacity:1;fill-rule:nonzero;stroke:none" d="m 6263.8,2482.26 c 148.23,0 268.84,-120.58 268.84,-268.85 0,-148.17 -120.61,-268.75 -268.84,-268.75 -148.24,0 -268.83,120.58 -268.83,268.75 0,148.27 120.59,268.85 268.83,268.85 z m -141.58,98 89.75,89.68 198.77,0 0,-140.05 c -44.69,20.83 -94.46,32.57 -146.94,32.57 -50.39,0 -98.27,-10.86 -141.58,-30.12 l 0,47.92 z m 118.9,238.53 c 0,93.6 76.13,169.98 169.62,170.27 l 0,-238.92 -169.62,0 0,68.65 z m 499.59,-68.65 -249.77,0 0,238.92 167.14,0 82.63,-238.92 z m 438.78,-144.45 0,-43.23 -61.7,0 c -22.15,0 -40.1,-18 -40.1,-40.1 0,-22.2 17.95,-40.1 40.1,-40.1 l 61.7,0 0,-122.93 c -0.06,0 -0.12,0 -0.17,0 -110.76,0 -204.75,-73.16 -236.21,-173.69 l -331.49,0 c 0.74,9.19 1.22,18.38 1.22,27.77 0,17.31 -1.32,34.33 -3.76,50.95 l 88.8,0 c 13.84,0 26.7,7.14 34.03,18.88 l 99.13,159.02 c 3.96,6.36 6.07,13.69 6.07,21.22 l 0,206.46 257.28,0 c 46.13,0 85.1,-29.44 85.1,-64.25 z m 167.08,-493.8 c 0,-92.22 -75.02,-167.23 -167.25,-167.23 -92.22,0 -167.26,75.01 -167.26,167.23 0,92.23 75.04,167.24 167.26,167.24 92.23,0 167.25,-75.01 167.25,-167.24 z m -855.63,558.05 265.97,0 0,-195.01 -81.28,-130.37 -88.46,0 c -21.12,51.93 -54.37,97.6 -96.23,133.6 l 0,191.78 z M 6263.8,1864.46 c 154.77,0 286.25,101.22 331.85,240.98 l 336.39,0 c 3.43,-133.5 112.99,-240.98 247.28,-240.98 136.44,0 247.45,110.9 247.45,247.43 0,108.27 -69.99,200.49 -167.09,233.94 l 0,259.86 c 0,79.6 -74.15,144.45 -165.29,144.45 l -268.82,0 -101.04,292.13 c -5.58,16.13 -20.8,26.99 -37.89,26.99 l -275.91,0 c -137.74,-0.39 -249.81,-112.67 -249.81,-250.47 l 0,-86.45 -107.15,-107.19 c -7.52,-7.53 -11.74,-17.7 -11.74,-28.36 l 0,-114.04 c -77.67,-64.06 -127.25,-160.98 -127.25,-269.34 0,-192.47 156.57,-348.95 349.02,-348.95" />
   <path id="path308" style="fill:#464648;fill-opacity:1;fill-rule:nonzero;stroke:none" d="m 6263.8,2286.27 c 40.15,0 72.82,-32.66 72.82,-72.86 0,-40.1 -32.67,-72.76 -72.82,-72.76 -40.15,0 -72.8,32.66 -72.8,72.76 0,40.2 32.65,72.86 72.8,72.86 z m 0,-225.82 c 84.37,0 153,68.66 153,152.96 0,84.4 -68.63,153.06 -153,153.06 -84.37,0 -152.99,-68.66 -152.99,-153.06 0,-84.3 68.62,-152.96 152.99,-152.96" />
   <path id="path310" style="fill:#464648;fill-opacity:1;fill-rule:nonzero;stroke:none" d="m 6878.12,1571.45 c -52.37,0 -94.95,42.55 -94.95,94.96 0,52.33 42.58,94.87 94.95,94.87 52.34,0 94.92,-42.54 94.92,-94.87 0,-52.41 -42.58,-94.96 -94.92,-94.96 z m -411.01,0 c -52.35,0 -94.94,42.55 -94.94,94.96 0,52.33 42.59,94.87 94.94,94.87 52.35,0 94.93,-42.54 94.93,-94.87 0,-52.41 -42.58,-94.96 -94.93,-94.96 z m -411,0 c -52.35,0 -94.95,42.55 -94.95,94.96 0,52.33 42.6,94.87 94.95,94.87 52.34,0 94.93,-42.54 94.93,-94.87 0,-52.41 -42.59,-94.96 -94.93,-94.96 z m 2591.59,510.12 c 22.15,0 40.1,17.9 40.1,40.1 0,22.11 -17.95,40.1 -40.1,40.1 l -845.36,0 c -14.7,0 -28.21,-8.12 -35.23,-21.02 l -204.68,-376.54 -539.15,0 c -31.51,46.66 -84.82,77.27 -145.16,77.27 -60.37,0 -113.67,-30.61 -145.19,-77.27 l -120.65,0 c -31.5,46.66 -84.82,77.27 -145.17,77.27 -60.35,0 -113.67,-30.61 -145.18,-77.27 l -120.66,0 c -31.5,46.66 -84.82,77.27 -145.16,77.27 -60.35,0 -113.67,-30.61 -145.18,-77.27 l -128,0 c -7.87,14.58 -19.87,26.61 -34.43,34.43 l 0,414.77 c 0,22.2 -17.95,40.1 -40.1,40.1 -22.14,0 -40.09,-17.9 -40.09,-40.1 l 0,-414.77 c -26.5,-14.28 -44.56,-42.35 -44.56,-74.52 0,-46.66 37.98,-84.6 84.65,-84.6 32.18,0 60.21,18 74.53,44.5 l 98.94,0 c -0.59,-5.77 -0.89,-11.64 -0.89,-17.61 0,-96.62 78.56,-175.16 175.13,-175.16 96.56,0 175.12,78.54 175.12,175.16 0,5.97 -0.3,11.84 -0.89,17.61 l 62.53,0 c -0.58,-5.77 -0.9,-11.64 -0.9,-17.61 0,-96.62 78.58,-175.16 175.14,-175.16 96.56,0 175.12,78.54 175.12,175.16 0,5.97 -0.31,11.84 -0.9,17.61 l 62.55,0 c -0.59,-5.77 -0.9,-11.64 -0.9,-17.61 0,-96.62 78.56,-175.16 175.14,-175.16 96.56,0 175.12,78.54 175.12,175.16 0,5.97 -0.31,11.84 -0.9,17.61 l 533.93,0 c 14.69,0 28.2,8.12 35.21,21.03 l 204.7,376.52 821.52,0" />
   <path id="path312" style="fill:#464648;fill-opacity:1;fill-rule:nonzero;stroke:none" d="m 6082.25,10297.8 -26.37,-144.9 c -2.7,-14.9 -11.74,-27.7 -24.79,-35.2 l -84.94,-49.1 75.28,-130.34 893.73,516.04 -75.26,130.3 -84.94,-49 c -7.78,-4.5 -16.64,-6.9 -25.62,-6.9 -5.9,0 -11.69,1 -17.24,3 l -138.74,49.7 -491.11,-283.6 z m 1672.6,156.5 893.72,-516.04 75.27,130.34 -84.94,49.1 c -13.04,7.5 -22.08,20.3 -24.77,35.2 l -26.39,144.9 -491.09,283.6 -138.74,-49.7 c -5.55,-2 -11.35,-3 -17.25,-3 -8.98,0 -17.84,2.4 -25.61,6.9 l -84.93,49 -75.27,-130.3 z m 205.2,-1213.07 c 28.24,0 51.22,-22.97 51.22,-51.22 l 0,-130.83 129.77,0 299.99,519.62 -31.37,379.11 -518.36,299.29 -344,-162.4 -167.94,-290.89 c -9.11,-15.79 -26.12,-25.61 -44.36,-25.61 -18.24,0 -35.24,9.82 -44.36,25.61 l -167.93,290.89 -344.01,162.4 -518.38,-299.29 -31.35,-379.11 300,-519.62 129.76,0 0,130.83 c 0,28.25 22.98,51.22 51.22,51.22 28.25,0 51.22,-22.97 51.22,-51.22 l 0,-130.83 145.12,0 1.67,2.7 c 92.33,149.61 251.97,238.92 427.04,238.92 175.06,0 334.71,-89.31 427.04,-238.92 l 1.67,-2.7 145.12,0 0,130.83 c 0,28.25 22.97,51.22 51.22,51.22 z m -1665.81,-1.86 c -98.67,0 -178.94,-80.27 -178.94,-178.95 0,-98.67 80.27,-178.95 178.94,-178.95 l 54.79,0 0,126.49 c 0,28.24 22.97,51.22 51.22,51.22 l 9.86,0 -4.35,8.53 -99.11,171.66 -12.41,0 z m 1965.08,-180.19 9.86,0 c 28.82,0 51.79,-22.98 51.79,-51.22 l 0,-126.49 54.79,0 c 98.67,0 178.94,80.28 178.94,178.95 0,98.68 -80.27,178.95 -178.94,178.95 l -12.41,0 -104.03,-180.19 z m -2084.49,399.76 c -174.69,-52.44 -296.7,-216.31 -296.7,-398.52 0,-229.44 186.67,-416.11 416.11,-416.11 l 177.26,0 0,30.72 -101.27,104.01 -75.99,0 c -155.15,0 -281.38,126.22 -281.38,281.38 0,134.97 96.23,251.21 228.8,276.39 l 7.88,1.49 -70.4,121.93 -4.31,-1.29 z m 2023.68,-783.91 0,-30.72 177.25,0 c 229.44,0 416.11,186.67 416.11,416.11 0,182.21 -122,346.08 -296.7,398.51 l -4.31,1.29 -70.39,-121.92 7.87,-1.49 c 132.58,-25.18 228.8,-141.42 228.8,-276.39 0,-155.16 -126.23,-281.38 -281.38,-281.38 l -75.97,0 -101.28,-104.01 z M 7335,9198.36 c -220.05,0 -399.07,-179.02 -399.07,-399.07 0,-220.05 179.02,-399.07 399.07,-399.07 220.05,0 399.07,179.02 399.07,399.07 0,220.05 -179.02,399.07 -399.07,399.07 z m -883.54,-355.92 107.96,-110.87 c 9.36,-9.61 14.52,-22.3 14.52,-35.73 l 0,-295.68 c 0,-13.42 -5.16,-26.11 -14.52,-35.73 l -107.96,-110.86 0,-114.3 1767.08,0 0,114.3 -107.95,110.86 c -9.37,9.62 -14.52,22.31 -14.52,35.73 l 0,295.68 c 0,13.43 5.15,26.12 14.52,35.73 l 107.95,110.87 0,114.3 -407.32,0 2.33,-7.39 c 15.23,-48.46 22.96,-98.95 22.96,-150.06 0,-276.53 -224.98,-501.51 -501.51,-501.51 -276.54,0 -501.51,224.98 -501.51,501.51 0,51.1 7.72,101.6 22.96,150.06 l 2.31,7.39 -407.3,0 0,-114.3 z m -195.55,-1007.55 2158.18,0 0,201.94 -2158.18,0 0,-201.94 z m -51.21,-102.43 c -28.25,0 -51.22,22.97 -51.22,51.22 l 0,304.37 c 0,28.24 22.97,51.22 51.22,51.22 l 144.33,0 0,135.11 c 0,13.43 5.16,26.12 14.52,35.74 l 107.95,110.86 0,120.89 -177.26,0 c -285.93,0 -518.54,232.62 -518.54,518.55 0,219.66 139.53,416.24 347.21,489.17 l 4.74,1.68 -1.07,4.91 c -1.09,5.01 -1.44,10.09 -1.01,15.11 l 26.82,324.3 -124.1,-71.65 c -7.78,-4.49 -16.62,-6.87 -25.55,-6.87 -18.27,0 -35.29,9.82 -44.41,25.62 l -126.49,219.11 c -6.84,11.8 -8.66,25.6 -5.12,38.8 3.54,13.3 12.02,24.3 23.86,31.1 l 108.76,62.8 26.38,145 c 2.7,14.8 11.73,27.6 24.78,35.2 l 532.17,307.2 c 7.8,4.5 16.65,6.9 25.62,6.9 5.89,0 11.69,-1 17.24,-3 l 138.75,-49.6 108.75,62.7 c 7.78,4.5 16.63,6.9 25.61,6.9 4.47,0 8.93,-0.6 13.26,-1.7 13.21,-3.6 24.25,-12 31.1,-23.9 l 126.48,-219.1 c 6.84,-11.8 8.66,-25.6 5.12,-38.8 -3.54,-13.3 -12.01,-24.3 -23.87,-31.1 l -124.09,-71.7 294.28,-138.9 c 9.47,-4.5 17.25,-11.6 22.48,-20.7 l 131.6,-227.95 131.6,227.95 c 5.25,9.1 13.02,16.2 22.49,20.7 l 294.27,138.9 -124.1,71.7 c -11.84,6.8 -20.32,17.8 -23.86,31.1 -3.54,13.2 -1.72,27 5.12,38.8 l 126.47,219.1 c 6.85,11.9 17.9,20.3 31.11,23.9 4.33,1.1 8.79,1.7 13.26,1.7 8.97,0 17.83,-2.4 25.62,-6.9 l 108.74,-62.7 138.74,49.6 c 5.55,2 11.36,3 17.24,3 8.98,0 17.85,-2.4 25.64,-6.9 l 532.16,-307.2 c 13.04,-7.6 22.09,-20.4 24.77,-35.2 l 26.41,-145 108.74,-62.8 c 11.84,-6.8 20.32,-17.8 23.85,-31.1 3.55,-13.2 1.73,-27 -5.09,-38.8 l -126.5,-219.11 c -6.84,-11.85 -17.89,-20.32 -31.1,-23.86 -4.31,-1.16 -8.77,-1.75 -13.26,-1.75 -8.98,0 -17.84,2.37 -25.61,6.86 l -124.09,71.65 26.83,-324.3 c 0.41,-5.01 0.06,-10.1 -1.02,-15.13 l -1.07,-4.9 4.73,-1.67 c 207.68,-72.93 347.21,-269.51 347.21,-489.17 0,-285.93 -232.61,-518.55 -518.54,-518.55 l -177.25,0 0,-120.89 107.95,-110.86 c 9.35,-9.63 14.51,-22.31 14.51,-35.74 l 0,-135.11 144.33,0 c 28.25,0 51.22,-22.98 51.22,-51.22 l 0,-304.37 c 0,-28.25 -22.97,-51.22 -51.22,-51.22 l -2260.6,0" />
   <path id="path314" style="fill:#464648;fill-opacity:1;fill-rule:nonzero;stroke:none" d="m 7335,8925.94 c -69.84,0 -126.66,-56.81 -126.66,-126.65 0,-69.84 56.82,-126.66 126.66,-126.66 69.84,0 126.66,56.82 126.66,126.66 0,69.84 -56.82,126.65 -126.66,126.65 z m 0,-355.74 c -126.32,0 -229.09,102.77 -229.09,229.09 0,126.32 102.77,229.09 229.09,229.09 126.32,0 229.09,-102.77 229.09,-229.09 0,-126.32 -102.77,-229.09 -229.09,-229.09" />
   <path id="path316" style="fill:#464648;fill-opacity:1;fill-rule:nonzero;stroke:none" d="m 7154.38,9476.54 c -28.24,0 -51.22,22.97 -51.22,51.21 0,28.25 22.98,51.22 51.22,51.22 l 361.24,0 c 28.24,0 51.22,-22.97 51.22,-51.22 0,-28.24 -22.98,-51.21 -51.22,-51.21 l -361.24,0" />
   </g>
   </g>
</svg>